<?xml version="1.0" encoding="UTF-8" standalone="no"?>
<!-- Generator: Adobe Illustrator 14.0.0, SVG Export Plug-In . SVG Version: 6.00 Build 43363)  -->

<svg
   xmlns:dc="http://purl.org/dc/elements/1.1/"
   xmlns:cc="http://creativecommons.org/ns#"
   xmlns:rdf="http://www.w3.org/1999/02/22-rdf-syntax-ns#"
   xmlns:svg="http://www.w3.org/2000/svg"
   xmlns="http://www.w3.org/2000/svg"
   xmlns:sodipodi="http://sodipodi.sourceforge.net/DTD/sodipodi-0.dtd"
   xmlns:inkscape="http://www.inkscape.org/namespaces/inkscape"
   version="1.1"
   x="0px"
   y="0px"
   width="443.86868"
   height="88.339546"
   viewBox="0 0 443.86868 88.339549"
   enable-background="new 0 0 453.543 170.079"
   xml:space="preserve"
   id="svg2"
   inkscape:version="0.91 r"
   sodipodi:docname="Alternative_TA.svg"><metadata
     id="metadata86"><rdf:RDF><cc:Work
         rdf:about=""><dc:format>image/svg+xml</dc:format><dc:type
           rdf:resource="http://purl.org/dc/dcmitype/StillImage" /><dc:title></dc:title></cc:Work></rdf:RDF></metadata><defs
     id="defs84" /><sodipodi:namedview
     pagecolor="#ffffff"
     bordercolor="#666666"
     borderopacity="1"
     objecttolerance="10"
     gridtolerance="10"
     guidetolerance="10"
     inkscape:pageopacity="0"
     inkscape:pageshadow="2"
     inkscape:window-width="1280"
     inkscape:window-height="740"
     id="namedview82"
     showgrid="false"
     inkscape:zoom="0.63701274"
     inkscape:cx="278.51023"
     inkscape:cy="-69.43488"
     inkscape:window-x="0"
     inkscape:window-y="65"
     inkscape:window-maximized="1"
     inkscape:current-layer="svg2"
     fit-margin-top="5"
     fit-margin-left="5"
     fit-margin-right="5"
     fit-margin-bottom="5" /><rect
     style="fill:#6c5353;fill-opacity:1;stroke:none"
     id="rect3005"
     width="466.6312"
     height="131.86549"
     x="-19.254539"
     y="462.61176" /><g
     id="Layer_1"
     transform="translate(-4.076332,-36.051453)"><rect
       x="-51.819"
       y="-17.304001"
       display="none"
       width="547"
       height="206"
       id="rect5"
       style="display:none" /><g
       display="none"
       id="g7"
       style="display:none"><path
         display="inline"
         d="m 105.161,30.469 c 4.326,-1.109 14.993,-2.333 15.998,1 0.78,2.586 -10.932,1.311 -12.999,2 -25.597,8.534 -30.884,32.284 -41.995,58.993 0.723,-1.739 -5.155,13.409 -8.999,10.999 -1.273,-0.798 -0.402,-10.824 3,-15.998 1.494,-2.272 4.36,-2.883 5,-4 1.874,-3.275 3.025,-8.531 5,-12.999 7.06,-15.976 16.37,-35.218 34.995,-39.995 z"
         id="path9"
         inkscape:connector-curvature="0"
         style="display:inline;fill:#ffffff" /><path
         display="inline"
         d="m 100.162,60.466 c 3.762,-0.412 7.411,-0.118 7.999,3.999 1.658,11.61 -10.231,20.23 -19.231,24.48 -3.227,1.524 -12.984,2.203 -9.75,8.25 1.609,2.734 5.714,1.944 5.531,1.938 7.013,0.273 9.796,-9.622 13.451,-6.671 2.768,2.234 -15.482,15.234 -21.482,8.984 -2.958,-3.082 -0.756,-13.842 0.75,-18 2.677,-7.39 13.901,-22.015 22.732,-22.98 z m -7.999,7.999 c -2.767,2.769 -13.414,16.781 -10.999,18.998 0.025,0.022 9.628,-3.064 13.266,-5.767 7.368,-5.474 11.389,-17.232 7.732,-18.23 -1.487,-0.406 -6.482,1.479 -9.999,4.999 z"
         id="path11"
         inkscape:connector-curvature="0"
         style="display:inline;fill:#ffffff" /><path
         display="inline"
         d="m 46.168,62.465 c 2.844,0.469 4.687,0.535 4,8.999 -0.672,8.275 -9.281,21.856 -12.488,23.231 -7,3 -11.085,-1.43 -11.509,-1.234 -3.065,1.419 -2.264,3.473 -4.241,6.984 -2.361,4.194 -9.375,7.125 -8.757,2.015 0.534,-4.414 0.522,0.789 4,-1 5.284,-2.718 5.447,-13.916 9.133,-22.14 1.869,-4.17 5.901,-9.151 7.865,-10.855 1.876,-1.63 7.307,-6.774 11.997,-6 z M 30.17,91.462 C 40.763,95.947 48.865,67.613 46.168,66.465 39.821,63.762 20.247,87.26 30.17,91.462 Z"
         id="path13"
         inkscape:connector-curvature="0"
         style="display:inline;fill:#ffffff" /><path
         display="inline"
         d="m 60.167,64.465 c 6.421,-4.429 2.816,12.643 -3,9.999 -1.32,-0.6 2.101,-9.379 3,-9.999 z"
         id="path15"
         inkscape:connector-curvature="0"
         style="display:inline;fill:#ffffff" /><path
         display="inline"
         d="m 116.16,66.465 c 5.9,-4.102 1.125,12.702 -1,19.998 -1.492,5.121 -4.811,18.381 -7.999,16.998 -1.569,-0.681 4.801,-23.423 6,-27.996 0.669,-2.558 2.51,-8.66 2.999,-9 z"
         id="path17"
         inkscape:connector-curvature="0"
         style="display:inline;fill:#ffffff" /><path
         display="inline"
         d="m 138.157,67.465 c 3.541,0.037 8.016,2.261 8.773,7.48 0.511,3.524 -9.729,29.148 -13.772,27.515 -4.114,-1.662 18.693,-27.84 5.999,-31.996 -4.39,-1.438 -11.923,8.962 -13.998,7.999 -4.661,-2.164 6.425,-11.067 12.998,-10.998 z"
         id="path19"
         inkscape:connector-curvature="0"
         style="display:inline;fill:#ffffff" /><path
         display="inline"
         d="m 158.154,68.465 c 5.939,-3.498 0.237,14.234 -4,9.999 -0.833,-0.833 3.785,-10.049 3,-7.999 0.533,-1.389 -0.166,-1.314 1,-2 z"
         id="path21"
         inkscape:connector-curvature="0"
         style="display:inline;fill:#ffffff" /></g><g
       id="g39" /></g><path
     inkscape:connector-curvature="0"
     style="fill:#ffffff"
     d="m 165.29567,37.319547 c 3.75,-0.352 8.145,-0.527 13.184,-0.527 5.039,0 8.766,1.096 11.18,3.287 2.414,2.192 3.621,5.901 3.621,11.127 l 0,27.105 5.168,0 0,4.535 -33.152,0 0,-4.535 22.148,0 0,-27.175 c 0,-3.609 -0.814,-6.076 -2.443,-7.4 -1.629,-1.324 -4.143,-1.986 -7.541,-1.986 -3.633,0 -7.09,0.129 -10.371,0.387 l -1.793,0.141 0,-4.959 z"
     id="path41" /><path
     inkscape:connector-curvature="0"
     style="fill:#ffffff"
     d="m 204.58367,67.518547 0,-30.023 5.836,0 0,24.047 -4.641,5.977 -1.195,0 z"
     id="path43" /><path
     inkscape:connector-curvature="0"
     style="fill:#ffffff"
     d="m 220.59867,83.339547 c -1.031,0 -2.203,-0.164 -3.516,-0.492 l 0,-4.816 c 1.711,0.234 2.66,0.352 2.848,0.352 3.352,0 5.027,-1.992 5.027,-5.977 l 0,-29.989 -4.957,0.457 0,-4.957 c 6.539,-0.75 12.258,-1.125 17.156,-1.125 4.172,0 7.688,0.668 10.547,2.004 3,1.406 5.062,3.68 6.188,6.82 0.586,1.641 0.879,3.504 0.879,5.59 l 0,31.641 -5.871,0 0,-31.711 c 0,-6.258 -4.184,-9.387 -12.551,-9.387 -1.031,0 -2.883,0.07 -5.555,0.211 l 0,29.637 c 0,3.704 -0.844,6.586 -2.531,8.648 -1.688,2.062 -4.242,3.094 -7.664,3.094 z"
     id="path45" /><path
     inkscape:connector-curvature="0"
     style="fill:#ffffff"
     d="m 271.97967,41.503547 c -1.266,0 -2.695,0.211 -4.289,0.633 l 0,-4.605 c 1.875,-0.492 3.973,-0.738 6.293,-0.738 7.312,0 10.969,4.02 10.969,12.059 l 0,22.922 c 0,1.898 -0.111,3.774 -0.334,5.625 -0.223,1.852 -0.451,3.223 -0.686,4.113 l -0.352,1.336 -20.883,0 0,-4.535 15.68,0 c 0.469,-1.758 0.703,-3.938 0.703,-6.539 l 0,-22.43 c 0,-2.812 -0.609,-4.852 -1.828,-6.117 -1.125,-1.15 -2.883,-1.724 -5.273,-1.724 z"
     id="path47" /><path
     inkscape:connector-curvature="0"
     style="fill:#ffffff"
     d="m 291.15767,37.038547 c 3.281,-0.164 6.223,-0.246 8.824,-0.246 2.601,0 4.764,0.158 6.486,0.475 1.722,0.317 3.334,0.826 4.834,1.529 1.5,0.703 2.766,1.605 3.797,2.707 2.18,2.368 3.27,5.602 3.27,9.703 l 0,31.641 -5.836,0 0,-31.711 c 0,-6.258 -4.195,-9.387 -12.586,-9.387 -2.531,0 -5.461,0.083 -8.789,0.246 l 0,-4.957 z"
     id="path49" /><path
     inkscape:connector-curvature="0"
     style="fill:#ffffff"
     d="m 329.00467,83.339547 c -1.031,0 -2.203,-0.164 -3.516,-0.492 l 0,-4.816 c 1.711,0.234 2.66,0.352 2.848,0.352 3.352,0 5.027,-1.992 5.027,-5.977 l 0,-29.989 -4.957,0.457 0,-4.957 c 6.539,-0.75 12.258,-1.125 17.156,-1.125 4.172,0 7.688,0.668 10.547,2.004 3,1.406 5.062,3.68 6.188,6.82 0.586,1.641 0.879,3.504 0.879,5.59 l 0,31.641 -5.871,0 0,-31.711 c 0,-6.258 -4.184,-9.387 -12.551,-9.387 -1.031,0 -2.883,0.07 -5.555,0.211 l 0,29.637 c 0,3.704 -0.844,6.586 -2.531,8.648 -1.687,2.062 -4.242,3.094 -7.664,3.094 z"
     id="path51" /><path
     inkscape:connector-curvature="0"
     style="fill:#ffffff"
     d="m 376.16767,37.495547 23.871,0 0,4.535 -6.082,23.203 -3.656,17.613 -5.906,0 3.656,-17.613 6.152,-23.203 -23.871,0 0,-13.816 5.836,0 0,9.281 z"
     id="path53" /><path
     inkscape:connector-curvature="0"
     style="fill:#ffffff"
     d="m 438.09567,37.495547 0,14.73 c 0,1.922 -0.082,3.581 -0.246,4.975 -0.164,1.395 -0.504,2.865 -1.02,4.412 -1.055,3.141 -3.293,5.379 -6.715,6.715 l 8.754,14.52 -6.574,0 -11.074,-18.949 -5.344,-8.016 c -0.938,0.352 -1.617,0.703 -2.039,1.055 -2.227,1.805 -3.34,4.829 -3.34,9.07 l 0,16.84 -5.836,0 0,-14.73 c 0,-5.133 0.762,-8.941 2.285,-11.426 0.609,-1.007 1.459,-1.951 2.549,-2.83 1.09,-0.879 2.396,-1.576 3.92,-2.092 l -8.719,-14.273 6.609,0 10.406,17.543 5.871,9.105 c 1.195,-0.703 2.08,-1.429 2.654,-2.18 0.574,-0.75 1.055,-1.77 1.441,-3.059 0.387,-1.289 0.58,-2.812 0.58,-4.57 l 0,-16.84 5.838,0 z"
     id="path55" /><g
     transform="matrix(0.61298275,-0.10035898,0.26011879,1.58878,-5.4742945,-276.55943)"
     style="font-style:normal;font-variant:normal;font-weight:normal;font-stretch:normal;font-size:55.12081528px;line-height:125%;font-family:'Almoni DL AAA';-inkscape-font-specification:'Almoni DL AAA';letter-spacing:0px;word-spacing:0px;fill:#aaeeff;fill-opacity:1;stroke:none"
     id="text3001"><path
       d="m 222.65925,22.818143 0,5.24832 3.47197,0 0,18.059603 -5.78661,0 0,5.24832 11.95002,0 0,-23.657811 4.41397,0 c 4.30631,0 5.24832,3.525799 5.24832,7.778279 l 0,15.879532 6.89011,0 0,-16.202505 c 0,-7.266898 -1.72254,-12.353738 -9.4739,-12.353738 l -16.71388,0"
       style="font-weight:bold;-inkscape-font-specification:'Almoni DL AAA Bold';letter-spacing:-0.52997005px;fill:#aaeeff"
       id="path3031"
       inkscape:connector-curvature="0" /><path
       d="m 202.89572,22.818143 0,-5.840438 -6.45947,0 0,11.088758 13.56488,0 -8.85485,23.307923 6.94393,0 10.63121,-28.556243 -15.8257,0"
       style="font-weight:bold;-inkscape-font-specification:'Almoni DL AAA Bold';letter-spacing:-0.52997005px;fill:#aaeeff"
       id="path3033"
       inkscape:connector-curvature="0" /><path
       d="m 178.84448,51.374386 -7.83211,-11.304074 c 4.4678,-0.699775 7.48222,-3.633457 7.48222,-9.204745 l 0,-8.047424 -6.29798,0 0,8.720285 c 0,2.799101 -0.64595,4.898432 -3.49888,5.113748 l -9.20475,-13.834033 -6.94393,0 6.5133,9.47389 c -5.08683,0.888177 -6.67479,5.033009 -6.67479,9.554634 l 0,9.527719 6.35182,0 0,-11.142587 c 0,-2.85293 0.3768,-4.333229 2.58379,-5.00609 l 10.36206,16.148677 7.15925,0"
       style="font-weight:bold;-inkscape-font-specification:'Almoni DL AAA Bold';letter-spacing:-0.52997005px;fill:#aaeeff"
       id="path3035"
       inkscape:connector-curvature="0" /><path
       d="m 148.15366,46.126066 -3.25665,0 0,-23.307923 -19.62064,0 0,5.24832 12.83819,0 0,18.059603 -12.94585,0 -0.0538,5.24832 23.03878,0 0,-5.24832"
       style="font-weight:bold;-inkscape-font-specification:'Almoni DL AAA Bold';letter-spacing:-0.52997005px;fill:#aaeeff"
       id="path3037"
       inkscape:connector-curvature="0" /><path
       d="m 112.53751,22.818143 0,16.041019 7.05159,0 0,-16.041019 -7.05159,0"
       style="font-weight:bold;-inkscape-font-specification:'Almoni DL AAA Bold';letter-spacing:-0.52997005px;fill:#aaeeff"
       id="path3039"
       inkscape:connector-curvature="0" /><path
       d="m 107.22704,46.126066 -3.25665,0 0,-23.307923 -19.620637,0 0,5.24832 12.838198,0 0,18.059603 -12.945856,0 -0.05383,5.24832 23.038775,0 0,-5.24832"
       style="font-weight:bold;-inkscape-font-specification:'Almoni DL AAA Bold';letter-spacing:-0.52997005px;fill:#aaeeff"
       id="path3041"
       inkscape:connector-curvature="0" /><path
       d="m 63.240495,39.289793 15.825703,0 0,-4.736945 -15.825703,0 0,4.736945"
       style="font-weight:bold;-inkscape-font-specification:'Almoni DL AAA Bold';letter-spacing:-0.52997005px;fill:#aaeeff"
       id="path3043"
       inkscape:connector-curvature="0" /><path
       d="m 50.178666,22.818143 0,16.041019 7.051589,0 0,-16.041019 -7.051589,0"
       style="font-weight:bold;-inkscape-font-specification:'Almoni DL AAA Bold';letter-spacing:-0.52997005px;fill:#aaeeff"
       id="path3045"
       inkscape:connector-curvature="0" /><path
       d="m 20.725925,22.818143 0,15.610387 6.163411,0 0,-10.523554 4.683117,0 c 3.821849,0 5.678951,1.480301 5.678951,7.159247 l 0,3.848768 c 0,5.625116 -1.910931,7.213075 -5.678951,7.213075 l -10.792699,0 0,5.24832 11.896191,0 c 7.455299,0 11.304074,-3.687289 11.304074,-11.411731 l 0,-5.678952 c 0,-7.778271 -3.579631,-11.46556 -11.304074,-11.46556 l -11.95002,0"
       style="font-weight:bold;-inkscape-font-specification:'Almoni DL AAA Bold';letter-spacing:-0.52997005px;fill:#aaeeff"
       id="path3047"
       inkscape:connector-curvature="0" /><path
       d="m 6.6413411,22.818143 0,28.556243 6.9439309,0 0,-28.556243 -6.9439309,0"
       style="font-weight:bold;-inkscape-font-specification:'Almoni DL AAA Bold';letter-spacing:-0.52997005px;fill:#aaeeff"
       id="path3049"
       inkscape:connector-curvature="0" /></g><g
     transform="matrix(0.62114394,0,0,1.6099328,14.967769,456.31239)"
     style="font-style:normal;font-variant:normal;font-weight:normal;font-stretch:normal;font-size:55.12081528px;line-height:125%;font-family:'Almoni DL AAA';-inkscape-font-specification:'Almoni DL AAA';letter-spacing:0px;word-spacing:0px;fill:#aaeeff;fill-opacity:1;stroke:none"
     id="text3026"><path
       d="m 182.6063,28.88298 0,4.570313 3.02344,0 0,15.726562 -5.03906,0 0,4.570313 10.40625,0 0,-20.601563 3.84375,0 c 3.75,0 4.57031,3.070317 4.57031,6.773438 l 0,13.828125 6,0 0,-14.109375 c 0,-6.328119 -1.50001,-10.757813 -8.25,-10.757813 l -14.55469,0"
       style="font-weight:bold;font-size:48px;-inkscape-font-specification:'Almoni DL AAA Bold';fill:#aaeeff"
       id="path3060"
       inkscape:connector-curvature="0" /><path
       d="m 164.93443,28.88298 0,-5.085937 -5.625,0 0,9.65625 11.8125,0 -7.71094,20.296875 6.04688,0 9.25781,-24.867188 -13.78125,0"
       style="font-weight:bold;font-size:48px;-inkscape-font-specification:'Almoni DL AAA Bold';fill:#aaeeff"
       id="path3062"
       inkscape:connector-curvature="0" /><path
       d="m 143.06724,53.750168 -6.82031,-9.84375 c 3.89062,-0.609375 6.51562,-3.164068 6.51562,-8.015625 l 0,-7.007813 -5.48437,0 0,7.59375 c 0,2.437498 -0.5625,4.265626 -3.04688,4.453125 l -8.01562,-12.046875 -6.04688,0 5.67188,8.25 c -4.42968,0.773437 -5.8125,4.382817 -5.8125,8.320313 l 0,8.296875 5.53125,0 0,-9.703125 c 0,-2.484373 0.32813,-3.773438 2.25,-4.359375 l 9.02344,14.0625 6.23437,0"
       style="font-weight:bold;font-size:48px;-inkscape-font-specification:'Almoni DL AAA Bold';fill:#aaeeff"
       id="path3064"
       inkscape:connector-curvature="0" /><path
       d="m 115.87974,49.179855 -2.83594,0 0,-20.296875 -17.085933,0 0,4.570313 11.179683,0 0,15.726562 -11.273433,0 -0.04687,4.570313 20.062503,0 0,-4.570313"
       style="font-weight:bold;font-size:48px;-inkscape-font-specification:'Almoni DL AAA Bold';fill:#aaeeff"
       id="path3066"
       inkscape:connector-curvature="0" /><path
       d="m 84.403179,28.88298 0,13.96875 6.140625,0 0,-13.96875 -6.140625,0"
       style="font-weight:bold;font-size:48px;-inkscape-font-specification:'Almoni DL AAA Bold';fill:#aaeeff"
       id="path3068"
       inkscape:connector-curvature="0" /><path
       d="m 79.317242,49.179855 -2.835938,0 0,-20.296875 -17.085937,0 0,4.570313 11.179687,0 0,15.726562 -11.273437,0 -0.04687,4.570313 20.0625,0 0,-4.570313"
       style="font-weight:bold;font-size:48px;-inkscape-font-specification:'Almoni DL AAA Bold';fill:#aaeeff"
       id="path3070"
       inkscape:connector-curvature="0" /><path
       d="m 40.551617,43.22673 13.78125,0 0,-4.125 -13.78125,0 0,4.125"
       style="font-weight:bold;font-size:48px;-inkscape-font-specification:'Almoni DL AAA Bold';fill:#aaeeff"
       id="path3072"
       inkscape:connector-curvature="0" /><path
       d="m 28.715679,28.88298 0,13.96875 6.140625,0 0,-13.96875 -6.140625,0"
       style="font-weight:bold;font-size:48px;-inkscape-font-specification:'Almoni DL AAA Bold';fill:#aaeeff"
       id="path3074"
       inkscape:connector-curvature="0" /><path
       d="m 2.6063042,28.88298 0,13.59375 5.3671875,0 0,-9.164062 4.0781253,0 c 3.328121,0 4.945312,1.289067 4.945312,6.234375 l 0,3.351562 c 0,4.898433 -1.664066,6.28125 -4.945312,6.28125 l -9.3984378,0 0,4.570313 10.3593748,0 c 6.492181,0 9.84375,-3.210944 9.84375,-9.9375 l 0,-4.945313 c 0,-6.77343 -3.117194,-9.984375 -9.84375,-9.984375 l -10.4062498,0"
       style="font-weight:bold;font-size:48px;-inkscape-font-specification:'Almoni DL AAA Bold';fill:#aaeeff"
       id="path3076"
       inkscape:connector-curvature="0" /><path
       d="m -10.120258,28.88298 0,24.867188 6.0468747,0 0,-24.867188 -6.0468747,0"
       style="font-weight:bold;font-size:48px;-inkscape-font-specification:'Almoni DL AAA Bold';fill:#aaeeff"
       id="path3078"
       inkscape:connector-curvature="0" /></g><text
     xml:space="preserve"
     style="font-style:normal;font-variant:normal;font-weight:normal;font-stretch:normal;font-size:55.12081528px;line-height:125%;font-family:'Almoni DL AAA';-inkscape-font-specification:'Almoni DL AAA';letter-spacing:0px;word-spacing:0px;fill:#aaeeff;fill-opacity:1;stroke:none"
     x="9.0708218"
     y="349.52353"
     id="text3051"
     sodipodi:linespacing="125%"
     transform="scale(0.62114393,1.6099328)"><tspan
       sodipodi:role="line"
       id="tspan3053"
       x="9.0708218"
       y="349.52353"
       style="font-weight:bold;font-size:48px;-inkscape-font-specification:'Almoni DL AAA Bold';letter-spacing:0px;fill:#aaeeff;fill-opacity:1">תל אביב-יפו</tspan></text>
<text
     xml:space="preserve"
     style="font-style:normal;font-variant:normal;font-weight:normal;font-stretch:normal;font-size:55.12081528px;line-height:125%;font-family:'Almoni DL AAA';-inkscape-font-specification:'Almoni DL AAA';letter-spacing:0px;word-spacing:0px;fill:#aaeeff;fill-opacity:1;stroke:none"
     x="-199.45224"
     y="321.3407"
     id="text3055"
     sodipodi:linespacing="125%"
     transform="matrix(0.59997897,-0.16076388,0.41668127,1.5550757,0,0)"><tspan
       sodipodi:role="line"
       id="tspan3057"
       x="-199.45224"
       y="321.3407"
       style="font-weight:bold;font-size:48px;-inkscape-font-specification:'Almoni DL AAA Bold';letter-spacing:0px;fill:#aaeeff;fill-opacity:1">תל אביב-יפו</tspan></text>
<g
     style="font-size:40px;font-style:normal;font-variant:normal;font-weight:normal;font-stretch:normal;line-height:125%;letter-spacing:0px;word-spacing:0px;fill:#aaeeff;fill-opacity:1;stroke:none;font-family:Almoni DL AAA;-inkscape-font-specification:Almoni DL AAA"
     id="text3080"><g
       id="g3109"
       transform="matrix(0.86094377,0,0,0.86094377,0.8677456,11.095884)"><path
         id="path3089"
         style="font-weight:bold;fill:#aaeeff;-inkscape-font-specification:Almoni DL AAA Bold"
         d="m 166.84572,62.61689 0,3.808594 2.51953,0 0,13.105468 -4.19922,0 0,3.808594 8.67188,0 0,-17.167969 3.20312,0 c 3.125,0 3.80859,2.558597 3.80859,5.644532 l 0,11.523437 5,0 0,-11.757812 c 0,-5.273433 -1.25,-8.964844 -6.875,-8.964844 l -12.1289,0"
         inkscape:connector-curvature="0" /><path
         id="path3091"
         style="font-weight:bold;fill:#aaeeff;-inkscape-font-specification:Almoni DL AAA Bold"
         d="m 152.11916,62.61689 0,-4.238281 -4.6875,0 0,8.046875 9.84375,0 -6.42579,16.914062 5.03907,0 7.71484,-20.722656 -11.48437,0"
         inkscape:connector-curvature="0" /><path
         id="path3093"
         style="font-weight:bold;fill:#aaeeff;-inkscape-font-specification:Almoni DL AAA Bold"
         d="m 133.8965,83.339546 -5.68359,-8.203125 c 3.24218,-0.507812 5.42968,-2.636723 5.42968,-6.679687 l 0,-5.839844 -4.57031,0 0,6.328125 c 0,2.031248 -0.46875,3.554688 -2.53906,3.710937 l -6.67969,-10.039062 -5.03906,0 4.72656,6.875 c -3.6914,0.644531 -4.84375,3.652347 -4.84375,6.933594 l 0,6.914062 4.60938,0 0,-8.085937 c 0,-2.070311 0.27344,-3.144532 1.875,-3.632813 l 7.51953,11.71875 5.19531,0"
         inkscape:connector-curvature="0" /><path
         id="path3095"
         style="font-weight:bold;fill:#aaeeff;-inkscape-font-specification:Almoni DL AAA Bold"
         d="m 111.24025,79.530952 -2.36328,0 0,-16.914062 -14.238283,0 0,3.808594 9.316403,0 0,13.105468 -9.394528,0 -0.03906,3.808594 16.718748,0 0,-3.808594"
         inkscape:connector-curvature="0" /><path
         id="path3097"
         style="font-weight:bold;fill:#aaeeff;-inkscape-font-specification:Almoni DL AAA Bold"
         d="m 85.009781,62.61689 0,11.640625 5.117188,0 0,-11.640625 -5.117188,0"
         inkscape:connector-curvature="0" /><path
         id="path3099"
         style="font-weight:bold;fill:#aaeeff;-inkscape-font-specification:Almoni DL AAA Bold"
         d="m 80.7715,79.530952 -2.363281,0 0,-16.914062 -14.238282,0 0,3.808594 9.316407,0 0,13.105468 -9.394532,0 -0.03906,3.808594 16.71875,0 0,-3.808594"
         inkscape:connector-curvature="0" /><path
         id="path3101"
         style="font-weight:bold;fill:#aaeeff;-inkscape-font-specification:Almoni DL AAA Bold"
         d="m 48.466812,74.570015 11.484375,0 0,-3.4375 -11.484375,0 0,3.4375"
         inkscape:connector-curvature="0" /><path
         id="path3103"
         style="font-weight:bold;fill:#aaeeff;-inkscape-font-specification:Almoni DL AAA Bold"
         d="m 38.603531,62.61689 0,11.640625 5.117188,0 0,-11.640625 -5.117188,0"
         inkscape:connector-curvature="0" /><path
         id="path3105"
         style="font-weight:bold;fill:#aaeeff;-inkscape-font-specification:Almoni DL AAA Bold"
         d="m 16.845719,62.61689 0,11.328125 4.472656,0 0,-7.636719 3.398437,0 c 2.773435,0 4.121094,1.074223 4.121094,5.195313 l 0,2.792968 c 0,4.082028 -1.386721,5.234375 -4.121094,5.234375 l -7.832031,0 0,3.808594 8.632813,0 c 5.41015,0 8.203125,-2.675787 8.203125,-8.28125 l 0,-4.121094 c 0,-5.644525 -2.597662,-8.320312 -8.203125,-8.320312 l -8.671875,0"
         inkscape:connector-curvature="0" /><path
         id="path3107"
         style="font-weight:bold;fill:#aaeeff;-inkscape-font-specification:Almoni DL AAA Bold"
         d="m 6.2402499,62.61689 0,20.722656 5.0390621,0 0,-20.722656 -5.0390621,0"
         inkscape:connector-curvature="0" /></g></g><text
     sodipodi:linespacing="125%"
     id="text3084"
     y="503.33954"
     x="3.3300936"
     style="font-style:normal;font-variant:normal;font-weight:normal;font-stretch:normal;font-size:40px;line-height:125%;font-family:'Almoni DL AAA';-inkscape-font-specification:'Almoni DL AAA';letter-spacing:0px;word-spacing:0px;fill:#aaeeff;fill-opacity:1;stroke:none"
     xml:space="preserve"><tspan
       style="font-weight:bold;-inkscape-font-specification:'Almoni DL AAA Bold';fill:#aaeeff;fill-opacity:1"
       y="503.33954"
       x="3.3300936"
       id="tspan3086"
       sodipodi:role="line">תל אביב-יפו</tspan></text>
</svg>