<?xml version="1.0" encoding="UTF-8" standalone="no"?>
<!-- Generator: Adobe Illustrator 14.0.0, SVG Export Plug-In . SVG Version: 6.00 Build 43363)  -->

<svg
   xmlns:dc="http://purl.org/dc/elements/1.1/"
   xmlns:cc="http://creativecommons.org/ns#"
   xmlns:rdf="http://www.w3.org/1999/02/22-rdf-syntax-ns#"
   xmlns:svg="http://www.w3.org/2000/svg"
   xmlns="http://www.w3.org/2000/svg"
   xmlns:sodipodi="http://sodipodi.sourceforge.net/DTD/sodipodi-0.dtd"
   xmlns:inkscape="http://www.inkscape.org/namespaces/inkscape"
   version="1.1"
   x="0px"
   y="0px"
   width="443.86868"
   height="88.339546"
   viewBox="0 0 443.86868 88.339549"
   enable-background="new 0 0 453.543 170.079"
   xml:space="preserve"
   id="svg2"
   inkscape:version="0.91 r13725"
   sodipodi:docname="Alternative_JM.svg"><metadata
     id="metadata86"><rdf:RDF><cc:Work
         rdf:about=""><dc:format>image/svg+xml</dc:format><dc:type
           rdf:resource="http://purl.org/dc/dcmitype/StillImage" /><dc:title></dc:title></cc:Work></rdf:RDF></metadata><defs
     id="defs84" /><sodipodi:namedview
     pagecolor="#ffffff"
     bordercolor="#666666"
     borderopacity="1"
     objecttolerance="10"
     gridtolerance="10"
     guidetolerance="10"
     inkscape:pageopacity="0"
     inkscape:pageshadow="2"
     inkscape:window-width="1276"
     inkscape:window-height="761"
     id="namedview82"
     showgrid="false"
     inkscape:zoom="2.5480509"
     inkscape:cx="221.93434"
     inkscape:cy="44.169773"
     inkscape:window-x="0"
     inkscape:window-y="37"
     inkscape:window-maximized="0"
     inkscape:current-layer="svg2"
     fit-margin-top="5"
     fit-margin-left="5"
     fit-margin-right="5"
     fit-margin-bottom="5" /><g
     id="Layer_1"
     transform="translate(-4.076332,-36.051453)"><rect
       x="-51.819"
       y="-17.304001"
       display="none"
       width="547"
       height="206"
       id="rect5"
       style="display:none" /><g
       display="none"
       id="g7"
       style="display:none"><path
         display="inline"
         d="m 105.161,30.469 c 4.326,-1.109 14.993,-2.333 15.998,1 0.78,2.586 -10.932,1.311 -12.999,2 -25.597,8.534 -30.884,32.284 -41.995,58.993 0.723,-1.739 -5.155,13.409 -8.999,10.999 -1.273,-0.798 -0.402,-10.824 3,-15.998 1.494,-2.272 4.36,-2.883 5,-4 1.874,-3.275 3.025,-8.531 5,-12.999 7.06,-15.976 16.37,-35.218 34.995,-39.995 z"
         id="path9"
         inkscape:connector-curvature="0"
         style="display:inline;fill:#ffffff" /><path
         display="inline"
         d="m 100.162,60.466 c 3.762,-0.412 7.411,-0.118 7.999,3.999 1.658,11.61 -10.231,20.23 -19.231,24.48 -3.227,1.524 -12.984,2.203 -9.75,8.25 1.609,2.734 5.714,1.944 5.531,1.938 7.013,0.273 9.796,-9.622 13.451,-6.671 2.768,2.234 -15.482,15.234 -21.482,8.984 -2.958,-3.082 -0.756,-13.842 0.75,-18 2.677,-7.39 13.901,-22.015 22.732,-22.98 z m -7.999,7.999 c -2.767,2.769 -13.414,16.781 -10.999,18.998 0.025,0.022 9.628,-3.064 13.266,-5.767 7.368,-5.474 11.389,-17.232 7.732,-18.23 -1.487,-0.406 -6.482,1.479 -9.999,4.999 z"
         id="path11"
         inkscape:connector-curvature="0"
         style="display:inline;fill:#ffffff" /><path
         display="inline"
         d="m 46.168,62.465 c 2.844,0.469 4.687,0.535 4,8.999 -0.672,8.275 -9.281,21.856 -12.488,23.231 -7,3 -11.085,-1.43 -11.509,-1.234 -3.065,1.419 -2.264,3.473 -4.241,6.984 -2.361,4.194 -9.375,7.125 -8.757,2.015 0.534,-4.414 0.522,0.789 4,-1 5.284,-2.718 5.447,-13.916 9.133,-22.14 1.869,-4.17 5.901,-9.151 7.865,-10.855 1.876,-1.63 7.307,-6.774 11.997,-6 z M 30.17,91.462 C 40.763,95.947 48.865,67.613 46.168,66.465 39.821,63.762 20.247,87.26 30.17,91.462 Z"
         id="path13"
         inkscape:connector-curvature="0"
         style="display:inline;fill:#ffffff" /><path
         display="inline"
         d="m 60.167,64.465 c 6.421,-4.429 2.816,12.643 -3,9.999 -1.32,-0.6 2.101,-9.379 3,-9.999 z"
         id="path15"
         inkscape:connector-curvature="0"
         style="display:inline;fill:#ffffff" /><path
         display="inline"
         d="m 116.16,66.465 c 5.9,-4.102 1.125,12.702 -1,19.998 -1.492,5.121 -4.811,18.381 -7.999,16.998 -1.569,-0.681 4.801,-23.423 6,-27.996 0.669,-2.558 2.51,-8.66 2.999,-9 z"
         id="path17"
         inkscape:connector-curvature="0"
         style="display:inline;fill:#ffffff" /><path
         display="inline"
         d="m 138.157,67.465 c 3.541,0.037 8.016,2.261 8.773,7.48 0.511,3.524 -9.729,29.148 -13.772,27.515 -4.114,-1.662 18.693,-27.84 5.999,-31.996 -4.39,-1.438 -11.923,8.962 -13.998,7.999 -4.661,-2.164 6.425,-11.067 12.998,-10.998 z"
         id="path19"
         inkscape:connector-curvature="0"
         style="display:inline;fill:#ffffff" /><path
         display="inline"
         d="m 158.154,68.465 c 5.939,-3.498 0.237,14.234 -4,9.999 -0.833,-0.833 3.785,-10.049 3,-7.999 0.533,-1.389 -0.166,-1.314 1,-2 z"
         id="path21"
         inkscape:connector-curvature="0"
         style="display:inline;fill:#ffffff" /></g><g
       id="g39" /></g><path
     style="fill:#aaeeff"
     d="M 103.75 5.0058594 C 100.41737 5.0693594 96.676531 5.6920312 94.519531 6.2695312 C 75.946531 11.242531 66.841172 30.582812 59.951172 46.632812 C 58.025172 51.121813 56.928844 56.388594 55.089844 59.683594 C 54.462844 60.807594 51.602812 61.449281 50.132812 63.738281 C 46.785812 68.947281 46.021734 78.981625 47.302734 79.765625 C 51.171734 82.134625 56.890547 66.924875 56.185547 68.671875 C 56.785504 67.185421 57.367236 65.704986 57.943359 64.228516 C 59.037983 63.702106 60.070606 62.778134 60.599609 61.673828 C 60.951609 60.938828 60.975891 60.122156 60.212891 59.660156 C 60.076591 59.577712 59.930212 59.517892 59.779297 59.472656 C 68.699468 36.182298 76.078879 15.40288 96.980469 9.7070312 C 104.60547 7.9570312 111.54234 11.894609 110.52734 7.0996094 C 110.00684 5.4381094 107.08263 4.9423594 103.75 5.0058594 z M 94.591797 36.160156 C 93.711094 36.1355 92.777391 36.205359 91.837891 36.318359 C 83.016891 37.376359 71.951516 52.119109 69.353516 59.537109 C 68.91572 60.787012 68.433983 62.653069 68.037109 64.703125 C 67.563453 64.673659 67.089994 64.635933 66.615234 64.626953 C 65.852234 64.611953 64.813719 64.889625 64.636719 65.765625 C 64.180624 68.037919 65.526426 68.717239 67.443359 68.638672 C 67.069008 72.35192 67.252796 75.972414 68.792969 77.542969 C 74.859969 83.728969 92.971688 70.536031 90.179688 68.332031 C 86.493688 65.421031 88.292969 71.519031 77.292969 75.707031 C 76.463969 76.004031 73.496469 76.660031 71.855469 73.832031 C 70.980469 72.582031 71.022453 70.481437 71.689453 68.398438 C 74.606453 67.648438 78.938156 65.874016 80.910156 64.916016 C 89.865156 60.570016 101.65991 51.824422 99.878906 40.232422 C 99.405656 37.149922 97.233906 36.234125 94.591797 36.160156 z M 93.550781 39.25 C 93.669979 39.256354 93.777906 39.270547 93.871094 39.294922 C 97.538094 40.252922 96.771031 49.979422 86.332031 57.607422 C 82.673031 60.281422 71.850469 64.427531 71.855469 64.394531 C 73.042469 56.269531 81.186828 47.198391 83.923828 44.400391 C 87.185391 41.066641 91.762815 39.154697 93.550781 39.25 z M 50.349609 40.175781 C 49.95404 40.21303 49.469469 40.391391 48.886719 40.740234 C 47.770719 48.478234 44.668141 50.185484 45.994141 50.771484 C 49.717922 52.583078 54.173449 39.815713 50.349609 40.175781 z M 35.044922 41.744141 C 31.469862 41.641029 27.816531 44.858141 26.371094 46.017578 C 24.511094 47.512578 20.713172 53.238391 18.701172 57.150391 C 18.217653 58.090377 17.759146 59.086141 17.316406 60.113281 C 17.350424 59.848681 17.38104 59.583593 17.423828 59.320312 C 17.610828 58.175312 14.689344 58.681734 14.527344 59.677734 C 14.14361 62.036312 14.104492 64.407328 14.767578 66.611328 C 12.728128 72.074532 10.809556 77.176296 8.2363281 78.669922 C 5.1873281 80.439922 6.0303906 74.349234 5.1503906 78.615234 C 4.1323906 83.556234 8.4589219 85.026 12.544922 79.25 C 14.722922 76.203 15.550094 73.776078 17.246094 70.955078 C 17.630094 70.801078 20.729984 75.432016 27.083984 73.166016 C 32.125984 71.369016 38.648938 59.567687 40.085938 51.554688 C 41.104938 45.871688 39.707469 43.663109 37.480469 42.412109 C 36.691844 41.968672 35.869936 41.767936 35.044922 41.744141 z M 111.68945 42.230469 C 111.31069 42.227591 110.83117 42.373328 110.23633 42.689453 C 109.71133 42.968453 107.15845 48.806625 106.18945 51.265625 C 104.45545 55.664625 95.42925 77.490516 96.90625 78.353516 C 99.90725 80.106516 104.77819 67.332781 106.86719 62.425781 C 109.56509 56.089281 115.35084 42.258288 111.68945 42.230469 z M 129.90625 42.912109 C 123.33325 42.914109 112.34039 51.932875 117.02539 54.046875 C 119.11039 54.987875 123.73047 45.704578 131.10547 46.642578 C 142.48047 50.892578 120.47447 73.524578 124.60547 75.142578 C 128.66547 76.732578 139.50302 55.515578 138.41602 49.642578 C 137.47902 44.580578 133.44725 42.911109 129.90625 42.912109 z M 149.31055 43.197266 C 148.92912 43.208975 148.46542 43.365469 147.91211 43.699219 C 146.22911 44.644219 147.8545 47.561516 143.9375 54.478516 C 148.99709 56.517578 152.99766 43.084075 149.31055 43.197266 z M 33.685547 46.234375 C 34.635584 46.303471 35.496812 46.789656 36.210938 47.800781 C 38.453937 50.976781 29.499609 73.773125 21.474609 69.078125 C 16.081109 65.702375 27.035287 45.750705 33.685547 46.234375 z "
     id="path25" /><path
     inkscape:connector-curvature="0"
     style="fill:#ffffff"
     d="m 165.29567,37.319547 c 3.75,-0.352 8.145,-0.527 13.184,-0.527 5.039,0 8.766,1.096 11.18,3.287 2.414,2.192 3.621,5.901 3.621,11.127 l 0,27.105 5.168,0 0,4.535 -33.152,0 0,-4.535 22.148,0 0,-27.175 c 0,-3.609 -0.814,-6.076 -2.443,-7.4 -1.629,-1.324 -4.143,-1.986 -7.541,-1.986 -3.633,0 -7.09,0.129 -10.371,0.387 l -1.793,0.141 0,-4.959 z"
     id="path41" /><path
     inkscape:connector-curvature="0"
     style="fill:#ffffff"
     d="m 204.58367,67.518547 0,-30.023 5.836,0 0,24.047 -4.641,5.977 -1.195,0 z"
     id="path43" /><path
     inkscape:connector-curvature="0"
     style="fill:#ffffff"
     d="m 220.59867,83.339547 c -1.031,0 -2.203,-0.164 -3.516,-0.492 l 0,-4.816 c 1.711,0.234 2.66,0.352 2.848,0.352 3.352,0 5.027,-1.992 5.027,-5.977 l 0,-29.989 -4.957,0.457 0,-4.957 c 6.539,-0.75 12.258,-1.125 17.156,-1.125 4.172,0 7.688,0.668 10.547,2.004 3,1.406 5.062,3.68 6.188,6.82 0.586,1.641 0.879,3.504 0.879,5.59 l 0,31.641 -5.871,0 0,-31.711 c 0,-6.258 -4.184,-9.387 -12.551,-9.387 -1.031,0 -2.883,0.07 -5.555,0.211 l 0,29.637 c 0,3.704 -0.844,6.586 -2.531,8.648 -1.688,2.062 -4.242,3.094 -7.664,3.094 z"
     id="path45" /><path
     inkscape:connector-curvature="0"
     style="fill:#ffffff"
     d="m 271.97967,41.503547 c -1.266,0 -2.695,0.211 -4.289,0.633 l 0,-4.605 c 1.875,-0.492 3.973,-0.738 6.293,-0.738 7.312,0 10.969,4.02 10.969,12.059 l 0,22.922 c 0,1.898 -0.111,3.774 -0.334,5.625 -0.223,1.852 -0.451,3.223 -0.686,4.113 l -0.352,1.336 -20.883,0 0,-4.535 15.68,0 c 0.469,-1.758 0.703,-3.938 0.703,-6.539 l 0,-22.43 c 0,-2.812 -0.609,-4.852 -1.828,-6.117 -1.125,-1.15 -2.883,-1.724 -5.273,-1.724 z"
     id="path47" /><path
     inkscape:connector-curvature="0"
     style="fill:#ffffff"
     d="m 291.15767,37.038547 c 3.281,-0.164 6.223,-0.246 8.824,-0.246 2.601,0 4.764,0.158 6.486,0.475 1.722,0.317 3.334,0.826 4.834,1.529 1.5,0.703 2.766,1.605 3.797,2.707 2.18,2.368 3.27,5.602 3.27,9.703 l 0,31.641 -5.836,0 0,-31.711 c 0,-6.258 -4.195,-9.387 -12.586,-9.387 -2.531,0 -5.461,0.083 -8.789,0.246 l 0,-4.957 z"
     id="path49" /><path
     inkscape:connector-curvature="0"
     style="fill:#ffffff"
     d="m 329.00467,83.339547 c -1.031,0 -2.203,-0.164 -3.516,-0.492 l 0,-4.816 c 1.711,0.234 2.66,0.352 2.848,0.352 3.352,0 5.027,-1.992 5.027,-5.977 l 0,-29.989 -4.957,0.457 0,-4.957 c 6.539,-0.75 12.258,-1.125 17.156,-1.125 4.172,0 7.688,0.668 10.547,2.004 3,1.406 5.062,3.68 6.188,6.82 0.586,1.641 0.879,3.504 0.879,5.59 l 0,31.641 -5.871,0 0,-31.711 c 0,-6.258 -4.184,-9.387 -12.551,-9.387 -1.031,0 -2.883,0.07 -5.555,0.211 l 0,29.637 c 0,3.704 -0.844,6.586 -2.531,8.648 -1.687,2.062 -4.242,3.094 -7.664,3.094 z"
     id="path51" /><path
     inkscape:connector-curvature="0"
     style="fill:#ffffff"
     d="m 376.16767,37.495547 23.871,0 0,4.535 -6.082,23.203 -3.656,17.613 -5.906,0 3.656,-17.613 6.152,-23.203 -23.871,0 0,-13.816 5.836,0 0,9.281 z"
     id="path53" /><path
     inkscape:connector-curvature="0"
     style="fill:#ffffff"
     d="m 438.09567,37.495547 0,14.73 c 0,1.922 -0.082,3.581 -0.246,4.975 -0.164,1.395 -0.504,2.865 -1.02,4.412 -1.055,3.141 -3.293,5.379 -6.715,6.715 l 8.754,14.52 -6.574,0 -11.074,-18.949 -5.344,-8.016 c -0.938,0.352 -1.617,0.703 -2.039,1.055 -2.227,1.805 -3.34,4.829 -3.34,9.07 l 0,16.84 -5.836,0 0,-14.73 c 0,-5.133 0.762,-8.941 2.285,-11.426 0.609,-1.007 1.459,-1.951 2.549,-2.83 1.09,-0.879 2.396,-1.576 3.92,-2.092 l -8.719,-14.273 6.609,0 10.406,17.543 5.871,9.105 c 1.195,-0.703 2.08,-1.429 2.654,-2.18 0.574,-0.75 1.055,-1.77 1.441,-3.059 0.387,-1.289 0.58,-2.812 0.58,-4.57 l 0,-16.84 5.838,0 z"
     id="path55" /></svg>