<?xml version="1.0" encoding="utf-8"?>
<!-- Generator: Adobe Illustrator 14.0.0, SVG Export Plug-In . SVG Version: 6.00 Build 43363)  -->
<!DOCTYPE svg PUBLIC "-//W3C//DTD SVG 1.1//EN" "http://www.w3.org/Graphics/SVG/1.1/DTD/svg11.dtd">
<svg version="1.1" id="Layer_1" xmlns="http://www.w3.org/2000/svg" xmlns:xlink="http://www.w3.org/1999/xlink" x="0px" y="0px"
	 width="85.04px" height="85.04px" viewBox="0 0 85.04 85.04" enable-background="new 0 0 85.04 85.04" xml:space="preserve">
<g id="wallet" display="none">
	<g display="inline">
		<path fill="#5B2324" stroke="#5B2324" stroke-width="13" stroke-linecap="round" stroke-linejoin="round" d="M135.081,130.528
			c0.004-0.248,0.008-0.492,0.008-0.742c0-36.865-25.705-66.754-57.416-66.754c-31.713,0-57.42,29.889-57.42,66.754
			c0,0.25,0.006,0.494,0.009,0.742H135.081z"/>
		<g>
			<path fill="#5B2324" d="M76.884,38.238c0,4.836-3.928,8.765-8.761,8.765c-4.841,0-8.771-3.929-8.771-8.765
				c0-4.84,3.931-8.767,8.771-8.767C72.956,29.471,76.884,33.398,76.884,38.238z"/>
			<path fill="#5B2324" d="M96.805,37.46c0.183,4.833-3.595,8.902-8.424,9.085c-4.836,0.185-8.912-3.593-9.094-8.424
				c-0.185-4.837,3.598-8.91,8.436-9.093C92.552,28.846,96.624,32.624,96.805,37.46z"/>
			<path fill="none" stroke="#5B2324" stroke-width="8" stroke-linecap="round" stroke-linejoin="round" d="M32.296,67.178
				c0,0,15.75-18.461,43.918-18.951c31.369-0.326,46.832,18.975,46.832,18.975"/>
			<polygon fill="#5B2324" points="65.229,46.448 76.432,35.468 80.244,49.29 			"/>
			<polygon fill="#5B2324" points="91.044,46.177 79.604,35.442 76.096,49.345 			"/>
		</g>
		<path fill="none" stroke="#FFFFFF" stroke-width="4.5" stroke-linecap="round" stroke-linejoin="round" d="M94.334,95.281
			c0,0,0.017,19.083-0.172,18.979c-3.479,0.005-16.693,0.001-19.814-0.157c-0.094,0.053,0.04-11.751,0.04-11.751"/>
		<path fill="none" stroke="#FFFFFF" stroke-width="4.5" stroke-linecap="round" stroke-linejoin="round" d="M63.614,108.665
			c0,0-0.002-18.838,0.192-18.731c3.562-0.006,17.071-0.002,20.265,0.155c0.099-0.053-0.006,12.264-0.006,12.264"/>
	</g>
</g>
<g id="heart" display="none">
	<g display="inline">
		<path fill="#D7163F" d="M101.299,26.476c-17.085,0.492-23.806,11.468-24.618,12.972c-0.79-1.503-7.103-12.479-24.188-12.972
			c-17.045-0.491-36.961,18.104-30.096,44.509c6.869,26.407,30.976,35.598,39.291,43.158c9.414,8.561,13.561,17.727,14.896,21.943
			c0.034,0.107,0.064,0.121,0.098,0.061c0.031,0.062,0.064,0.049,0.099-0.061c1.338-4.219,5.479-13.385,14.896-21.943
			c8.317-7.562,32.422-16.751,39.291-43.158C137.83,44.579,118.343,25.986,101.299,26.476z"/>
		<polygon fill="#FFFFFF" stroke="#FFFFFF" stroke-width="2" stroke-linecap="round" stroke-linejoin="round" points="
			20.381,82.176 58.394,82.183 62.275,73.327 74.039,106.797 86.301,62.915 91.887,82.204 130.197,82.176 131.268,78.976 
			94.986,79.018 86.091,48.053 73.599,94.011 62.561,64.79 55.764,78.98 19.96,79.004 		"/>
	</g>
</g>
<g id="clock" display="none">
	<g display="inline">
		<circle fill="#EBA510" cx="77.168" cy="81.852" r="54.271"/>
		<path fill="#FFFFFF" d="M82.422,82.346c0,1.63-1.378,2.953-3.075,2.953l0,0c-1.697,0-3.074-1.323-3.074-2.953V55.456
			c0-1.629,1.377-2.953,3.074-2.953l0,0c1.697,0,3.075,1.324,3.075,2.953V82.346z"/>
		<path fill="#FFFFFF" d="M57.136,105.737c-1.426,1.227-3.48,1.178-4.577-0.109l0,0c-1.101-1.279-0.833-3.314,0.596-4.539
			L76.72,80.905c1.425-1.223,3.48-1.175,4.578,0.113l0,0c1.101,1.279,0.832,3.314-0.596,4.539L57.136,105.737z"/>
	</g>
</g>
<g id="leaves" display="none">
	<g display="inline">
		<path fill="#70B723" d="M59.634,136.552C34.7,132.227-1.768,101.219,10.673,54.372C55.666,68.094,60.332,98.76,59.634,136.552z"/>
		<path fill="#70B723" d="M65.112,136.456c42.532-1.558,84.893-47.015,81.094-110.032C86.666,37.427,62.666,78.76,65.112,136.456z"
			/>
	</g>
</g>
<g id="walk" display="none">
	<g display="inline">
		<g>
			<path fill="#FFFFFF" d="M92.88,78.665c-2.927,3.986-6.995,1.771-7.777,1.433c-0.781-0.339-16.76-11.478-17.108-11.739
				c-0.956-0.713-2.011-1.355-2.517-2.011c-0.513-0.664-4.5-8.996-5.025-9.554c-0.231,0.08-5.183,22.134-5.279,22.625
				c-0.241,1.192-0.52,1.84,0.251,2.767c0.184,0.221,21.017,24.419,21.369,24.888c0.064,0.092,0.229,0.469,0.251,0.504
				c0.053,0.092,0.234,0.473,0.251,0.504c0.044,0.09,0.812,2.713,1.006,3.771c0.043,0.233,2.495,12.91,2.766,14.329
				c0.163,0.857,3.143,15.677,2.768,18.101c-0.002,0.019-0.256,5.25-5.938,6.302c-6.379,1.223-8.728-3.867-8.957-4.479
				c-0.193-0.522-1.209-4.687-1.401-5.842c-0.027-0.161-3.664-18.945-4.022-20.866c-0.254-1.359-0.308-2.905-0.754-4.021
				c-0.147-0.369-0.552-1.047-0.755-1.258c-0.625-0.65-1.737-1.854-2.517-2.766c-0.716-0.838-1.395-1.518-2.263-2.514
				c-0.061-0.071-12.239-12.17-13.618-13.576c-0.703,3.09-5.769,22.671-6.788,24.385c-0.093,0.157-0.604,1.004-0.754,1.257
				c-0.094,0.16-14.886,25.476-15.587,26.396c-1.358,2.082-6.599,5.511-11.667,2.408c-5.812-3.717-2.84-9.937-2.654-10.373
				c0.641-1.312,14.747-25.619,14.824-25.724c0.201-0.269,0.694-1.151,0.754-1.257c0.066-0.115,0.47-0.907,0.503-1.005
				c0.162-0.44,4.492-20.615,4.776-21.872c2.775-12.241,5.609-24.124,8.296-36.703c-0.053-0.304-0.278-0.154-0.503,0
				c-2.619,2.073-5.163,4.225-7.793,6.285c-0.441,0.329-0.376,0.279-0.503,0.502c-0.291,2.629-4.243,20.146-4.505,20.843
				c-0.218,0.58-0.688,1.65-0.773,1.782c-0.185,0.275-0.312,0.514-0.503,0.754c-0.641,0.803-2.176,2.576-5.277,2.012
				c-3.319-0.878-4.033-3.01-4.273-4.021c-0.352-1.479-0.093-2.605,0.251-4.274c1.317-6.397,5.487-24.043,5.53-24.134
				c0.015-0.031,0.188-0.412,0.251-0.502c0.185-0.264,3.228-2.781,3.52-3.018c0.347-0.279,10.332-8.387,12.067-9.806
				c0.482-0.396,9.767-7.804,10.056-8.045c1.775-1.481,4.464-2.834,7.29-3.016c1.917-0.124,3.29,0.437,4.526,0.502
				c0.236,0.012,1.229,0.382,1.507,0.503c0.12,0.052,0.873,0.442,1.006,0.502c0.083,0.038,0.625,0.444,0.754,0.503
				c0.082,0.037,0.626,0.444,0.754,0.503c0.068,0.03,2.134,2.149,2.768,3.019c1.226,1.683,12.604,25.12,12.818,25.391
				c0.479,0.604,16.659,11.799,17.514,12.521C92.772,72.56,95,75.51,92.88,78.665z"/>
		</g>
		<circle fill="#FFFFFF" cx="54.735" cy="12.74" r="12.584"/>
	</g>
</g>
<g id="bus" display="none">
	<g display="inline">
		<circle fill="#FFFFFF" cx="76.44" cy="145.233" r="6.623"/>
		<circle fill="#FFFFFF" cx="26.241" cy="145.233" r="6.623"/>
		<path fill="#FFFFFF" d="M2.597,142.847c0.011,0.041,0.028,0.292,0.237,0.676c0.241,0.44,0.603,0.904,1.087,1.251
			c0.481,0.35,0.639,0.438,1.204,0.604c1.141,0.272,9.267,0.199,12.762,0.111c-0.002-0.07-0.021-0.227-0.021-0.3
			c0-4.634,3.807-8.42,8.438-8.42c2.971,0,5.58,1.546,7.071,3.876c0.021,0.01,0.039,0.021,0.047,0.034
			c0.007,0.011,0.008,0.028,0.006,0.05c0.801,1.285,1.265,2.802,1.265,4.432c0,0.07-0.004,0.145-0.005,0.217
			c11.108,0,22.221,0,33.328,0c-0.001-0.073-0.006-0.146-0.006-0.217c0-4.636,3.757-8.393,8.39-8.393
			c4.637,0,8.392,3.756,8.392,8.393c0,0.07-0.003,0.145-0.005,0.217c3.833,0,7.666,0,11.5,0c0.879-0.188,0.979-0.609,1.083-1.205
			c0.008-0.021,0.011-1.229,0-1.809c-0.046-2.501,0.208-6.01,0-8.309c0.004,0.037-0.068-0.562-0.12-0.844
			c-0.104-0.559-0.375-1.159-0.604-1.808c-0.396-1.137-1.458-4.146-1.563-4.454c-0.104-0.296-1.072-3.212-1.204-3.613
			c-0.062-0.181-0.146-0.481-0.241-0.724c-0.151-0.378-1.072-3.102-1.084-3.132c-0.059-0.146-0.124-0.434-0.144-0.605
			c-0.063-0.549,0.301-0.725,0.505-0.836c0.047-0.026,0.377-0.129,0.418-0.147c0.201-0.09,0.292-0.087,0.312-0.271
			c0.09-0.846-0.041-2.02-0.007-2.955c-0.067-0.172-0.188-0.293-0.361-0.36c-26.422,0-54.911,0-82.129,0
			c-0.623,0-3.379,0.147-3.938,1.017c-0.325,0.256-1.124,1.928-1.284,2.449c-0.104,0.334-3.397,12.409-3.449,12.792
			c-0.126,0.923-0.084,2.024-0.084,3.164C2.393,134.728,2.199,141.379,2.597,142.847z M80.391,127.793c0-2.271,0-4.375,0-6.381
			c0-1.129-0.104-2.455,0.157-2.938c0.157-0.227,0.452-0.28,0.562-0.312c0.106-0.031,7.201-0.207,8.433,0
			c0.146,0.023,0.257,0.09,0.351,0.178c0.2,0.16,0.262,0.343,0.372,0.545c0.131,0.238,0.353,0.811,0.362,0.843
			c0.364,0.958,2.797,7.854,3.01,8.551c0.084,0.273,0.168,0.541,0.246,0.771c0.109,0.324,0.089,0.719-0.049,0.966
			c-0.137,0.248-0.359,0.54-0.799,0.553c-2.995,0.003-11.642,0.274-12.163-0.121C80.338,130.042,80.391,128.954,80.391,127.793z
			 M67.919,120.986c0.425-1.499,0.729-2.563,1.205-2.72c0.101-0.057,0.466-0.122,0.68-0.141c0.213-0.021,7.049-0.004,7.232,0.018
			c0.184,0.023,0.311,0.104,0.461,0.211c0.462,0.271,0.362,1.706,0.362,2.938c0,2.252,0,4.246,0,6.263
			c0,1.19,0.159,2.25-0.358,2.771c-0.479,0.479-1.508,0.36-2.409,0.36c-2.993,0-5.874,0.022-8.549-0.12
			c-0.707-0.167-0.854-0.876-0.843-0.843C65.47,129.068,67.789,121.443,67.919,120.986z M51.003,128.741
			c0.211-0.544,2.583-8.754,2.979-9.847c0.361-0.994,0.963-0.845,0.963-0.845l10.051,0.018c1.017,0.26,0.729,1.609,0.729,1.609
			s-2.989,9.889-3.071,10.115c-0.117,0.332-0.271,0.633-0.669,0.679c-0.396,0.047-9.564,0.044-10.354-0.12
			C50.839,130.189,50.792,129.284,51.003,128.741z M36.311,128.741c0.211-0.544,2.583-8.754,2.98-9.847
			c0.358-0.994,0.963-0.845,0.963-0.845l10.049,0.018c1.017,0.26,0.729,1.609,0.729,1.609s-2.988,9.889-3.071,10.115
			c-0.12,0.332-0.271,0.633-0.669,0.679c-0.398,0.047-9.567,0.044-10.356-0.12C36.147,130.189,36.1,129.284,36.311,128.741z
			 M21.62,128.741c0.211-0.544,2.583-8.754,2.979-9.847c0.362-0.994,0.964-0.845,0.964-0.845l10.049,0.018
			c1.019,0.26,0.729,1.609,0.729,1.609s-2.989,9.889-3.071,10.115c-0.121,0.332-0.271,0.633-0.67,0.679
			c-0.396,0.047-9.563,0.044-10.354-0.12C21.456,130.189,21.409,129.284,21.62,128.741z M6.748,128.741
			c0.21-0.544,2.583-8.754,2.979-9.847c0.361-0.994,0.963-0.845,0.963-0.845l10.053,0.018c1.016,0.26,0.729,1.609,0.729,1.609
			s-2.988,9.889-3.071,10.115c-0.121,0.332-0.271,0.633-0.669,0.679c-0.396,0.047-9.564,0.044-10.354-0.12
			S6.538,129.284,6.748,128.741z"/>
		<path fill="#FFFFFF" d="M52.369,107.818"/>
	</g>
</g>
<g id="tram" display="none">
	<g display="inline">
		<path fill="#FFFFFF" d="M81.907,136.284c-0.046-0.146-0.053-0.203-0.089-0.345c-0.431-1.664-0.802-3.209-1.202-4.817
			c-0.25-1.002-0.575-2.473-0.86-3.441c-0.062-0.209-0.306-0.852-0.344-0.947c-0.046-0.066-0.179-0.292-0.37-0.439
			c-0.194-0.15-0.598-0.234-0.662-0.248c-0.845-0.143-2.065-0.084-2.927-0.084c-7.717,0-15.125,0-22.72,0
			c-0.646,0-1.399,0.108-1.807,0c-0.543-0.149-1.003-1.023-1.463-1.205c-0.166-0.065-0.354-0.153-0.43-0.172
			c-0.056-0.016-0.119,0.004-0.175,0c-2.046-0.172-6.106,0-6.106,0l6.711-4.734l-6.441-4.833l-0.028-2.779h-3.399v2.769h0.007
			l-6.396,4.933l6.539,4.646c0,0-2.001,0-3.101,0c-1.05,0-2.223-0.141-3.184,0c-0.005,0.002,0.005,0.08,0,0.086
			c-0.021,0.021-0.146-0.01-0.172,0c-0.326,0.104-0.607,0.369-0.86,0.603c-0.239,0.224-0.352,0.483-0.517,0.604
			c-0.354,0.254-1.376,0.086-2.065,0.086c-7.636,0-14.861,0-22.373,0c-1.017,0-2.907-0.17-3.438,0.172
			c-0.062,0.039-0.115,0.051-0.175,0.085c-0.219,0.136-0.639,0.524-0.688,0.602c-0.067,0.104-0.11,0.337-0.172,0.519
			c-0.074,0.216-1.892,7.383-1.896,7.398c-0.051,0.217-0.152,0.709-0.172,0.775c-0.104,0.418-0.223,0.808-0.257,1.119
			c-0.109,0.979,0,2.078,0,3.097c0,3.126,0,6.245,0,9.294c2.237,0,4.475,0,6.711,0c0,0.432,0,0.859,0,1.291c1.349,0,2.697,0,4.045,0
			h0.128c0.073,1.407,1.238,2.525,2.664,2.525s2.591-1.118,2.665-2.525h0.136c1.32,0,2.642,0,3.959,0h0.085
			c0.073,1.407,1.238,2.525,2.664,2.525c1.429,0,2.593-1.118,2.663-2.525h0.098h29.688h0.085c0.073,1.407,1.237,2.525,2.664,2.525
			c1.426,0,2.591-1.118,2.664-2.525h0.181h3.958h0.042c0.073,1.407,1.238,2.525,2.664,2.525c1.429,0,2.59-1.118,2.663-2.525h0.141
			c1.317,0,2.638,0,3.955,0c-0.022-0.119,0.02-1.282,0.02-1.282c2.237,0,4.544-0.009,6.781-0.009c0-3.145,0-6.254,0-9.294
			C81.993,138.655,82.138,137.065,81.907,136.284z M8.85,136.456c-0.203,0.198-0.312,0.291-1.059,0.291
			c-0.561,0-3.035,0.108-3.549-0.086c-0.104-0.041-0.304-0.043-0.562-0.281c-0.266-0.243-0.251-0.603-0.253-0.611
			c-0.104-0.482,1.193-5.482,1.291-5.68c0.21-0.42,0.297-0.592,0.604-0.688c0.27-0.085,2.802-0.028,3.184,0
			c0.383,0.031,0.448,0.185,0.517,0.433c0.151,0.972,0.081,3.763,0.081,5.106C9.104,135.936,9.147,136.165,8.85,136.456z
			 M16.805,146.829c0,0.539-0.437,0.975-0.976,0.975h-3.386c-0.54,0-0.977-0.438-0.977-0.975V130.45
			c0-0.539,0.437-0.978,0.977-0.978h3.386c0.539,0,0.976,0.438,0.976,0.978V146.829z M23.603,146.829
			c0,0.539-0.438,0.975-0.975,0.975h-3.384c-0.54,0-0.978-0.438-0.978-0.975V130.45c0-0.539,0.438-0.978,0.978-0.978h3.384
			c0.538,0,0.975,0.438,0.975,0.978V146.829z M34.791,135.958c0,0.485-0.479,0.883-1.069,0.883H26.91
			c-0.593,0-1.069-0.396-1.069-0.883v-5.636c0-0.485,0.479-0.884,1.069-0.884h6.812c0.591,0,1.069,0.396,1.069,0.884V135.958z
			 M34.923,119.935l6.368-4.817l6.368,4.817l-6.368,4.302L34.923,119.935z M45.719,135.958c0,0.485-0.478,0.883-1.067,0.883H37.84
			c-0.589,0-1.067-0.396-1.067-0.883v-5.636c0-0.485,0.479-0.884,1.067-0.884h6.812c0.592,0,1.067,0.396,1.067,0.884V135.958z
			 M56.647,135.958c0,0.485-0.478,0.883-1.065,0.883h-6.812c-0.59,0-1.066-0.396-1.066-0.883v-5.636
			c0-0.485,0.479-0.884,1.066-0.884h6.812c0.59,0,1.065,0.396,1.065,0.884V135.958z M64.305,146.741
			c0,0.537-0.437,0.977-0.976,0.977h-3.387c-0.539,0-0.975-0.438-0.975-0.977v-16.379c0-0.537,0.438-0.976,0.975-0.976h3.387
			c0.539,0,0.976,0.438,0.976,0.976V146.741z M71.104,146.741c0,0.537-0.438,0.977-0.977,0.977h-3.383
			c-0.539,0-0.978-0.438-0.978-0.977v-16.379c0-0.537,0.438-0.976,0.978-0.976h3.383c0.54,0,0.977,0.438,0.977,0.976V146.741z
			 M79.154,135.854c-0.005,0.021-0.234,0.41-0.344,0.52c-0.256,0.254-0.656,0.312-1.292,0.344c-0.396,0.02-2.692,0.064-3.524-0.086
			c-0.418-0.326-0.397-0.815-0.433-1.377c-0.004-1.627-0.059-5.065,0-5.336c0.062-0.271,0.062-0.463,0.604-0.519
			c0.323-0.132,2.888-0.028,3.099,0c0.424,0.031,0.556,0.404,0.602,0.519c0.015,0.028,0.111,0.346,0.175,0.603
			c0.059,0.249,0.798,3.364,0.857,3.615C79.041,134.717,79.29,135.331,79.154,135.854z"/>
	</g>
</g>
<g id="car">
	<g id="Shape_1">
		<g>
			<path fill="#FFFFFF" d="M4.736,51.333c0,0,0.333,1.127,1.184,1.521c0.852,0.394,5.933,0.562,5.933,0.562l0.451,0.012
				c-0.205-0.707-0.315-1.455-0.315-2.229c0-4.412,3.364-7.988,7.777-7.988s8.308,3.576,8.308,7.988
				c0,0.892-0.146,1.748-0.414,2.547l29.154,0.078c-0.188-0.681-0.29-1.885-0.29-2.625c0-4.412,3.578-7.988,7.989-7.988
				c4.414,0,7.989,3.576,7.989,7.988c0,0.438-0.036,0.867-0.104,1.287l0.442-0.024c0,0,5.442-0.251,7.105-1.464
				c0.31-0.094,0.393-0.498,0.562-0.732c0.297-0.413-0.226-11.823-0.195-12.373c-0.059-0.521,0.033-1.061-0.251-1.272
				c-0.309-0.23-1.521-0.227-1.898-0.26c-2.515-0.115-3.983-0.591-4.761-0.841c-0.845-0.273-3.855-1.937-6.887-3.691
				c-3.262-1.632-5.815-2.625-5.815-2.625s-1.771-0.602-4.894-1.17c-12.934-1.796-16.797,0.244-20.494,1.596
				c-2.625,0.993-7.548,4.008-8.945,4.864c-0.846,0.518-1.688,1.092-2.544,1.625c-0.39,0.243-0.863,0.557-1.339,0.684
				c-2.489,0.521-4.723,0.946-11.72,2.647c-2.035,0.664-4.705,1.221-5.746,2.816C3.912,43.955,4.736,51.333,4.736,51.333z
				 M47.775,37.333c0.055-0.738-0.103-4.818,0.021-7.422c8.006-0.361,13.12,2.304,14.432,3.687c0.426,0.496,1.312,1.808-1.195,2.865
				C59.16,37.259,53.33,37.167,47.775,37.333z M30.42,35.442c2.375-1.985,4.485-3.049,7.037-4.007
				c2.972-0.979,6.542-1.426,6.542-1.426s1.12-0.104,1.203-0.113c0.022,0.369-0.094,7.464-0.094,7.464s-12.507,0.004-13.721,0.004
				C30.101,37.322,27.59,37.806,30.42,35.442z"/>
		</g>
	</g>
	<circle fill="#FFFFFF" cx="64.531" cy="51.222" r="6.488"/>
	<circle fill="#FFFFFF" cx="19.959" cy="51.223" r="6.489"/>
</g>
<g id="taxi" display="none">
	<circle display="inline" fill="#FFFFFF" cx="65.455" cy="145.655" r="7.016"/>
	<circle display="inline" fill="#FFFFFF" cx="17.262" cy="145.655" r="7.016"/>
	<path display="inline" fill="#FFFFFF" d="M50.882,118.855c-0.115-0.229-0.345-3.911-4.371-3.911
		c-3.226,0.141-3.853,3.796-3.853,3.796S46.74,118.28,50.882,118.855z"/>
	<path display="inline" fill="#FFFFFF" d="M0.803,145.776c0,0,0.359,1.219,1.279,1.646c0.92,0.427,6.415,0.606,6.415,0.606
		l0.485,0.013c-0.221-0.767-0.34-1.572-0.34-2.408c0-4.771,3.64-8.639,8.408-8.639c4.771,0,8.983,3.865,8.983,8.639
		c0,0.963-0.158,1.889-0.448,2.753l31.521,0.085c-0.203-0.736-0.312-2.037-0.312-2.838c0-4.771,3.868-8.639,8.638-8.639
		c4.771,0,8.641,3.865,8.641,8.639c0,0.473-0.039,0.937-0.112,1.39l0.479-0.024c0,0,5.887-0.271,7.685-1.584
		c0.335-0.101,0.425-0.537,0.605-0.791c0.321-0.446-0.242-12.785-0.211-13.379c-0.062-0.562,0.037-1.146-0.271-1.375
		c-0.333-0.25-1.646-0.244-2.055-0.281c-2.719-0.125-4.309-0.639-5.146-0.908c-0.914-0.297-4.169-2.094-7.447-3.992
		c-3.524-1.764-6.287-2.837-6.287-2.837s-1.917-0.651-5.292-1.265c-13.98-1.942-18.162,0.264-22.156,1.725
		c-2.84,1.074-8.162,4.334-9.674,5.259c-0.914,0.562-1.821,1.183-2.75,1.759c-0.423,0.265-0.935,0.604-1.449,0.738
		c-2.688,0.562-5.105,1.023-12.674,2.863c-2.196,0.717-5.085,1.318-6.212,3.045C-0.087,137.795,0.803,145.776,0.803,145.776z
		 M47.336,130.639c0.061-0.801-0.109-5.21,0.021-8.026c8.656-0.39,14.188,2.492,15.604,3.987c0.461,0.536,1.418,1.955-1.292,3.097
		C59.648,130.558,53.344,130.458,47.336,130.639z M46.427,138.465h2.818v2.818h-2.818V138.465z M43.604,141.284h2.817v2.815h-2.817
		V141.284z M35.146,138.465h2.817v2.818h2.815v-2.818h2.818v2.818H40.78v2.815h-2.815v-2.815h-2.817L35.146,138.465L35.146,138.465z
		 M28.573,128.593c2.566-2.147,4.85-3.298,7.607-4.332c3.212-1.06,7.073-1.542,7.073-1.542s1.211-0.114,1.3-0.122
		c0.024,0.397-0.102,8.069-0.102,8.069s-13.521,0.004-14.834,0.004C28.228,130.625,25.515,131.148,28.573,128.593z"/>
</g>
</svg>
