<?xml version="1.0" encoding="UTF-8" standalone="no"?>
<!-- Generator: Adobe Illustrator 14.0.0, SVG Export Plug-In . SVG Version: 6.00 Build 43363)  -->

<svg
   xmlns:dc="http://purl.org/dc/elements/1.1/"
   xmlns:cc="http://creativecommons.org/ns#"
   xmlns:rdf="http://www.w3.org/1999/02/22-rdf-syntax-ns#"
   xmlns:svg="http://www.w3.org/2000/svg"
   xmlns="http://www.w3.org/2000/svg"
   xmlns:sodipodi="http://sodipodi.sourceforge.net/DTD/sodipodi-0.dtd"
   xmlns:inkscape="http://www.inkscape.org/namespaces/inkscape"
   version="1.1"
   id="Layer_1"
   x="0px"
   y="0px"
   width="99.213px"
   height="42.52px"
   viewBox="0 0 99.213 42.52"
   enable-background="new 0 0 99.213 42.52"
   xml:space="preserve"
   inkscape:version="0.91 r"
   sodipodi:docname="parkandrideback_english.svg"><metadata
     id="metadata98"><rdf:RDF><cc:Work
         rdf:about=""><dc:format>image/svg+xml</dc:format><dc:type
           rdf:resource="http://purl.org/dc/dcmitype/StillImage" /><dc:title></dc:title></cc:Work></rdf:RDF></metadata><defs
     id="defs96" /><sodipodi:namedview
     pagecolor="#ffffff"
     bordercolor="#666666"
     borderopacity="1"
     objecttolerance="10"
     gridtolerance="10"
     guidetolerance="10"
     inkscape:pageopacity="0"
     inkscape:pageshadow="2"
     inkscape:window-width="1280"
     inkscape:window-height="740"
     id="namedview94"
     showgrid="false"
     inkscape:zoom="5.6568543"
     inkscape:cx="57.131467"
     inkscape:cy="32.036491"
     inkscape:window-x="0"
     inkscape:window-y="0"
     inkscape:window-maximized="1"
     inkscape:current-layer="g57" /><g
     id="wallet"
     display="none"><g
       display="inline"
       id="g4"><path
         fill="#5B2324"
         stroke="#5B2324"
         stroke-width="13"
         stroke-linecap="round"
         stroke-linejoin="round"
         d="M135.081,130.528    c0.004-0.248,0.008-0.494,0.008-0.743c0-36.865-25.705-66.753-57.416-66.753c-31.713,0-57.42,29.888-57.42,66.753    c0,0.249,0.006,0.495,0.01,0.743H135.081z"
         id="path6" /><g
         id="g8"><path
           fill="#5B2324"
           d="M76.884,38.238c0,4.836-3.928,8.764-8.761,8.764c-4.841,0-8.769-3.928-8.769-8.764     c0-4.84,3.928-8.767,8.769-8.767C72.956,29.471,76.884,33.398,76.884,38.238z"
           id="path10" /><path
           fill="#5B2324"
           d="M96.805,37.46c0.183,4.833-3.596,8.903-8.425,9.086c-4.836,0.184-8.912-3.594-9.094-8.425     c-0.182-4.837,3.598-8.91,8.437-9.092C92.552,28.846,96.624,32.624,96.805,37.46z"
           id="path12" /><path
           fill="none"
           stroke="#5B2324"
           stroke-width="8"
           stroke-linecap="round"
           stroke-linejoin="round"
           d="M32.296,67.178     c0,0,15.75-18.461,43.918-18.951c31.369-0.326,46.832,18.974,46.832,18.974"
           id="path14" /><polygon
           fill="#5B2324"
           points="65.229,46.448 76.432,35.468 80.244,49.29    "
           id="polygon16" /><polygon
           fill="#5B2324"
           points="91.044,46.177 79.604,35.442 76.096,49.345    "
           id="polygon18" /></g><path
         fill="none"
         stroke="#FFFFFF"
         stroke-width="4.5"
         stroke-linecap="round"
         stroke-linejoin="round"
         d="M94.334,95.281    c0,0,0.018,19.083-0.172,18.979c-3.479,0.005-16.692,0.001-19.813-0.157c-0.095,0.053,0.04-11.751,0.04-11.751"
         id="path20" /><path
         fill="none"
         stroke="#FFFFFF"
         stroke-width="4.5"
         stroke-linecap="round"
         stroke-linejoin="round"
         d="M63.614,108.664    c0,0-0.002-18.837,0.192-18.731c3.559-0.006,17.07-0.002,20.265,0.156c0.096-0.053-0.006,12.263-0.006,12.263"
         id="path22" /></g></g><g
     id="heart"
     display="none"><g
       display="inline"
       id="g25"><path
         fill="#D7163F"
         d="M101.299,26.476c-17.085,0.492-23.806,11.468-24.617,12.972c-0.79-1.503-7.104-12.479-24.188-12.972    c-17.045-0.491-36.961,18.104-30.094,44.509c6.869,26.407,30.973,35.597,39.291,43.158c9.414,8.559,13.558,17.726,14.893,21.943    c0.034,0.109,0.067,0.122,0.099,0.061c0.03,0.062,0.063,0.049,0.099-0.061c1.335-4.218,5.479-13.385,14.893-21.943    c8.317-7.562,32.423-16.751,39.291-43.158C137.83,44.579,118.343,25.986,101.299,26.476z"
         id="path27" /><polygon
         fill="#FFFFFF"
         stroke="#FFFFFF"
         stroke-width="2"
         stroke-linecap="round"
         stroke-linejoin="round"
         points="    20.381,82.176 58.394,82.183 62.275,73.327 74.039,106.798 86.301,62.914 91.887,82.204 130.197,82.176 131.268,78.976     94.986,79.018 86.091,48.053 73.599,94.011 62.561,64.789 55.764,78.98 19.96,79.005   "
         id="polygon29" /></g></g><g
     id="clock"
     display="none"><g
       display="inline"
       id="g32"><circle
         fill="#EBA510"
         cx="77.168"
         cy="81.852"
         r="54.271"
         id="circle34" /><path
         fill="#FFFFFF"
         d="M82.422,82.346c0,1.63-1.378,2.953-3.074,2.953l0,0c-1.697,0-3.074-1.323-3.074-2.953v-26.89    c0-1.629,1.377-2.953,3.074-2.953l0,0c1.696,0,3.074,1.324,3.074,2.953V82.346z"
         id="path36" /><path
         fill="#FFFFFF"
         d="M57.136,105.737c-1.427,1.226-3.48,1.176-4.577-0.11l0,0c-1.102-1.28-0.833-3.315,0.596-4.54L76.72,80.905    c1.425-1.223,3.479-1.175,4.577,0.113l0,0c1.102,1.28,0.832,3.314-0.596,4.539L57.136,105.737z"
         id="path38" /></g></g><g
     id="leaves"
     display="none"><g
       display="inline"
       id="g41"><path
         fill="#70B723"
         d="M59.634,136.552c-24.934-4.325-61.401-35.333-48.961-82.18C55.666,68.094,60.332,98.76,59.634,136.552z"
         id="path43" /><path
         fill="#70B723"
         d="M65.112,136.455c42.532-1.556,84.89-47.013,81.091-110.031C86.666,37.427,62.666,78.76,65.112,136.455z"
         id="path45" /></g></g><g
     id="walk"
     display="none"><g
       display="inline"
       id="g48"><g
         id="g50"><path
           fill="#FFFFFF"
           d="M92.88,78.665c-2.927,3.987-6.995,1.771-7.776,1.432S68.343,68.619,67.992,68.358     c-0.956-0.713-2.008-1.356-2.514-2.011c-0.514-0.664-4.5-8.996-5.028-9.553c-0.23,0.079-5.18,22.133-5.279,22.625     c-0.24,1.193-0.517,1.839,0.251,2.766c0.185,0.221,21.018,24.419,21.369,24.888c0.067,0.09,0.231,0.468,0.251,0.503     c0.054,0.092,0.237,0.472,0.251,0.503c0.044,0.091,0.812,2.713,1.006,3.771c0.043,0.234,2.495,12.91,2.767,14.329     c0.163,0.857,3.14,15.677,2.765,18.101c-0.002,0.017-0.256,5.25-5.937,6.3c-6.379,1.223-8.729-3.867-8.957-4.479     c-0.196-0.523-1.209-4.687-1.404-5.842c-0.027-0.161-3.664-18.945-4.022-20.866c-0.254-1.361-0.308-2.905-0.754-4.022     c-0.146-0.369-0.552-1.047-0.755-1.257c-0.625-0.651-1.736-1.856-2.514-2.766c-0.716-0.838-1.396-1.518-2.263-2.514     c-0.062-0.071-12.239-12.17-13.618-13.576c-0.703,3.09-5.77,22.671-6.788,24.385c-0.093,0.157-0.605,1.004-0.754,1.257     c-0.094,0.16-14.886,25.475-15.587,26.396c-1.361,2.081-6.6,5.51-11.667,2.408c-5.812-3.716-2.84-9.936-2.655-10.373     c0.639-1.312,14.748-25.619,14.825-25.723c0.201-0.269,0.693-1.152,0.754-1.257c0.065-0.115,0.467-0.907,0.503-1.005     c0.162-0.44,4.492-20.615,4.776-21.872c2.774-12.241,5.608-24.124,8.296-36.703c-0.054-0.304-0.279-0.155-0.503,0     c-2.619,2.073-5.163,4.224-7.793,6.285c-0.442,0.329-0.376,0.28-0.504,0.502c-0.291,2.629-4.242,20.145-4.505,20.843     c-0.218,0.58-0.685,1.65-0.772,1.782c-0.186,0.276-0.312,0.514-0.503,0.754c-0.642,0.803-2.176,2.576-5.28,2.011     c-3.319-0.877-4.033-3.009-4.273-4.021c-0.352-1.479-0.093-2.605,0.251-4.274c1.317-6.398,5.487-24.043,5.53-24.134     c0.016-0.031,0.188-0.412,0.251-0.502c0.186-0.263,3.229-2.781,3.521-3.017c0.345-0.28,10.332-8.386,12.066-9.805     c0.484-0.396,9.768-7.804,10.057-8.045c1.774-1.482,4.464-2.834,7.29-3.016c1.917-0.124,3.29,0.437,4.525,0.502     c0.238,0.012,1.23,0.382,1.507,0.503c0.12,0.052,0.873,0.442,1.007,0.502c0.083,0.038,0.625,0.444,0.754,0.503     c0.082,0.037,0.626,0.444,0.754,0.503c0.067,0.03,2.133,2.149,2.765,3.018c1.227,1.683,12.606,25.12,12.821,25.391     c0.478,0.603,16.659,11.799,17.511,12.52C92.772,72.56,95,75.51,92.88,78.665z"
           id="path52" /></g><circle
         fill="#FFFFFF"
         cx="54.735"
         cy="12.74"
         r="12.584"
         id="circle54" /></g></g><g
     id="bus"><g
       id="g57"><path
         id="path4247"
         style="fill:#ffffff"
         d="m 37.715838,2.970703 -0.470704,0 c -0.624,0 -3.3785,0.145625 -3.9375,1.015625 -0.326,0.254 -1.124156,1.927219 -1.285156,2.449219 -0.105,0.334 -3.398219,12.409969 -3.449219,12.792969 -0.126,0.923 -0.08398,2.024062 -0.08398,3.164062 0,1 -0.193969,7.652141 0.207031,9.119141 0.01,0.041 0.02733,0.291781 0.236328,0.675781 0.24,0.441 0.600938,0.902 1.085938,1.25 0.484,0.349 0.640078,0.436516 1.205078,0.603516 0.579945,0.138881 3.825504,0.05352 6.492188,0.05664 l 0,-15.033203 c -1.958908,-0.02076 -3.922578,0.01842 -4.246094,-0.04883 -0.789,-0.164 -0.836953,-1.067375 -0.626953,-1.609375 0.21,-0.544 2.583468,-8.753703 2.980468,-9.845703 0.361,-0.994 0.962891,-0.84375 0.962891,-0.84375 l 0.929688,0.002 z m -0.133807,0 0,3.753906 4.609375,0.0078 c 1.018,0.258 0.728516,1.609375 0.728516,1.609375 0,0 -2.987313,9.888235 -3.070313,10.115234 -0.121,0.331 -0.269967,0.633688 -0.667968,0.679688 -0.06132,0.0073 -1.182883,-0.024 -1.59961,-0.01953 l 0,15.019532 c 0.627629,-0.01056 1.277825,0.02748 1.759766,0.01563 -0.002,-0.071 -0.02148,-0.225828 -0.02148,-0.298828 0,-4.634 3.808407,-8.419922 8.441407,-8.419922 2.971,0 5.579312,1.545 7.070312,3.875 0.021,0.01 0.03887,0.02216 0.04687,0.03516 0.007,0.01 0.0069,0.02683 0.0059,0.04883 0.801,1.285 1.265626,2.803688 1.265625,4.429688 0,0.071 -0.0049,0.143796 -0.0059,0.216796 l 9.22461,0 4.660156,-14.806642 -2.707031,0 0,0 c -3.671331,-0.0012 -8.443124,-0.115284 -8.931641,-0.216794 -0.791,-0.163 -0.837953,-1.067375 -0.626953,-1.609375 0.21,-0.544 2.58347,-8.753704 2.980469,-9.845704 0.27,-0.7455 0.676844,-0.847229 0.863281,-0.851562 0.06215,-0.0015 0.09961,0.0078 0.09961,0.0078 l 6.982422,0.0078 5.238281,0 1.175782,-3.753906 z m 9.333985,3.738281 c 0.06199,-0.0014 0.09961,0.0078 0.09961,0.0078 l 10.048828,0.01563 c 1.017,0.258 0.728516,1.609375 0.728516,1.609375 0,0 -2.988313,9.888235 -3.070313,10.115234 -0.121,0.331 -0.270922,0.633688 -0.669922,0.679688 -0.397,0.047 -9.566469,0.04291 -10.355468,-0.121094 -0.791001,-0.163 -0.837002,-1.067375 -0.625,-1.609375 0.210999,-0.544 2.584468,-8.753703 2.980468,-9.845703 0.2715,-0.7455 0.677311,-0.847226 0.863281,-0.85156 z m 21.580078,-3.738281 -1.195313,3.814453 4.341797,0 0,0.0098 c 2.095676,-8.06e-4 4.917935,-0.0036 5.044922,0.01172 0.184,0.023 0.311938,0.100938 0.460938,0.210938 0.462999,0.271 0.365234,1.7055 0.365234,2.9375 l 0,6.263672 c 0,1.19 0.160625,2.248531 -0.359375,2.769531 -0.479,0.479 -1.511156,0.244144 -2.410156,0.244144 -1.085882,0 -2.049803,0.003 -3.101563,0 -0.02384,-6.9e-5 -0.04649,7.5e-5 -0.07031,0 l -8.195313,0 -4.617187,14.806638 8.914062,0 c -0.002,-0.072 -0.0059,-0.144796 -0.0059,-0.216796 0,-4.635 3.757625,-8.390625 8.390625,-8.390625 4.633996,0 8.388676,3.756625 8.388676,8.390625 0,0.071 -0.0029,0.143796 -0.0059,0.216796 l 11.5,0 c 0.88,-0.188 0.97998,-0.608125 1.08398,-1.203124 0.009,-0.023 0.012,-1.230594 0,-1.808594 -0.046,-2.501 0.208,-6.009594 0,-8.308594 0.005,0.038 -0.0671,-0.560797 -0.11914,-0.841797 -0.104,-0.558 -0.37552,-1.161594 -0.60352,-1.808594 -0.397,-1.138 -1.45745,-4.146078 -1.56445,-4.455078 -0.103,-0.296 -1.07308,-3.210328 -1.20508,-3.611328 -0.06,-0.18 -0.14523,-0.483609 -0.24023,-0.724609 -0.151,-0.378 -1.07199,-3.10086 -1.08399,-3.13086 -0.06,-0.146 -0.12353,-0.433422 -0.14453,-0.607422 -0.062,-0.549 0.30186,-0.722937 0.50586,-0.835937 0.047,-0.026 0.37697,-0.127485 0.41797,-0.146485 0.201,-0.09 0.2925,-0.08748 0.3125,-0.271484 0.09,-0.845 -0.04161,-2.019078 -0.0078,-2.955078 -0.068,-0.173 -0.18833,-0.292375 -0.36133,-0.359375 l -24.435546,0 z M 87.375,6.732422 c 0.83966,0.01225 1.51281,0.0398 1.82031,0.0918 0.14701,0.024 0.25855,0.09073 0.35157,0.177734 0.2,0.16 0.26304,0.342922 0.37304,0.544922 0.131,0.239 0.34933,0.81075 0.36133,0.84375 0.363,0.958 2.79677,7.852781 3.00977,8.550781 0.084,0.273 0.16909,0.541485 0.24609,0.771485 0.108,0.324 0.08917,0.717843 -0.04883,0.964843 -0.138,0.248 -0.36078,0.539735 -0.80078,0.552735 -2.994,0.004 -11.63911,0.274906 -12.16211,-0.121094 -0.533999,-0.404 -0.47947,-1.491344 -0.48047,-2.652344 l 0,-6.380859 c 0,-1.131 -0.104748,-2.4555 0.15625,-2.9375 0.156,-0.227 0.45246,-0.281453 0.56445,-0.314453 0.0795,-0.024 4.09041,-0.128547 6.60938,-0.0918 z"
         inkscape:connector-curvature="0"
         sodipodi:nodetypes="cscccscccccccccccccccccccccsscccsccccccccccccccccccccccccccccccsscscccccssscccccccccccccccccccsccccccccccsccs" /><path
         style="fill:#ffffff"
         d="M 73.927734 6.7246094 L 68.689453 6.7246094 L 73.925781 6.7304688 L 73.927734 6.7246094 z "
         id="path4275" /><circle
         fill="#FFFFFF"
         cx="76.094"
         cy="33.897"
         r="6.623"
         id="circle59"
         style="fill:#ffffff" /><circle
         cx="47.692169"
         cy="33.896999"
         r="6.6230001"
         id="circle61"
         style="fill:#ffffff" /><path
         fill="#FFFFFF"
         d="M52.022-3.518"
         id="path65"
         style="fill:#ffffff" /><g
         style="font-style:normal;font-variant:normal;font-weight:normal;font-stretch:normal;font-size:40px;line-height:125%;font-family:'Almoni DL AAA';-inkscape-font-specification:'Almoni DL AAA';letter-spacing:0px;word-spacing:0px;fill:#ffffff;fill-opacity:1;stroke:none;stroke-width:1px;stroke-linecap:butt;stroke-linejoin:miter;stroke-opacity:1"
         id="text4336"><path
           d="m 9.2664435,10.309468 c -0.102823,0 -7.745917,0 -7.745917,0 l 0,21.901065 4.095739,0 0,-8.345711 c 0,0 3.547355,0 3.650178,0 4.0785995,0 7.4374485,-1.730836 7.4374485,-6.751971 0,-4.969725 -3.187479,-6.803383 -7.4374485,-6.803383 z m -3.650178,10.744889 0,-8.071519 3.050383,0 c 2.1078475,0 4.3185185,0.702616 4.3185185,4.130013 0,3.410259 -2.244945,3.941506 -4.3185185,3.941506 l -3.050383,0 z"
           style="font-size:40px;fill:#ffffff"
           id="path4345"
           inkscape:connector-curvature="0" /><path
           d="m 27.084889,20.210489 -3.641397,0 0,-3.652993 -2.133812,0 0,3.652993 -3.6298,0 0,1.994651 3.6298,0 0,3.757364 2.133812,0 0,-3.757364 3.641397,0 0,-1.994651 z"
           style="font-style:normal;font-variant:normal;font-weight:bold;font-stretch:normal;font-size:30px;font-family:'Almoni DL AAA';-inkscape-font-specification:'Almoni DL AAA Bold';letter-spacing:-4.3499999px;fill:#ffffff"
           id="path4347"
           inkscape:connector-curvature="0" /></g></g></g><g
     id="tram"
     display="none"><g
       display="inline"
       id="g68"><path
         d="M283.281,66.537c-0.172-0.579-0.199-0.817-0.346-1.381c-1.732-6.668-3.218-12.863-4.83-19.321    c-1.004-4.021-2.306-9.905-3.45-13.802c-0.247-0.839-1.229-3.412-1.38-3.796c-0.187-0.277-0.71-1.169-1.486-1.772    c-0.775-0.604-2.383-0.942-2.655-0.987c-3.383-0.564-8.276-0.345-11.73-0.345c-30.931,0-60.651,0-91.091,0    c-2.604,0-5.624,0.446-7.246,0c-2.176-0.6-4.023-4.1-5.866-4.831c-0.667-0.264-1.424-0.615-1.726-0.69    c-0.21-0.052-0.474,0.019-0.69,0c-8.203-0.687-24.498,0-24.498,0L153.2,0.635c0,0-25.726-19.036-25.962-19.758    c-0.022-0.069,0.008-10.769,0.008-10.769h-13.629v11.1h0.028L87.988,0.979l26.223,18.632c0,0-8.021,0-12.421,0    c-4.215,0-8.915-0.558-12.767,0c-0.021,0.003,0.019,0.322,0,0.346c-0.072,0.088-0.572-0.038-0.69,0    c-1.31,0.418-2.438,1.478-3.45,2.415c-0.959,0.889-1.409,1.939-2.069,2.416c-1.421,1.021-5.519,0.345-8.281,0.345    c-30.616,0-59.59,0-89.711,0c-4.075,0-11.658-0.676-13.802,0.689c-0.244,0.156-0.461,0.204-0.69,0.346    c-0.877,0.542-2.561,2.105-2.76,2.416c-0.27,0.418-0.444,1.348-0.69,2.069c-0.293,0.861-7.572,29.6-7.591,29.674    c-0.207,0.863-0.625,2.843-0.689,3.104c-0.42,1.682-0.897,3.241-1.035,4.486c-0.438,3.936,0,8.338,0,12.421    c0,12.534,0,25.039,0,37.264c8.971,0,17.941,0,26.913,0c0,1.727,0,3.45,0,5.176c5.405,0,10.812,0,16.217,0h0.513    c0.294,5.646,4.964,10.132,10.682,10.132s10.387-4.486,10.682-10.132h0.552c5.291,0,10.581,0,15.872,0h0.341    c0.294,5.646,4.964,10.132,10.682,10.132s10.387-4.486,10.682-10.132h0.379h119.04h0.341c0.294,5.646,4.964,10.132,10.682,10.132    s10.387-4.486,10.681-10.132h0.725h15.872h0.169c0.293,5.646,4.963,10.132,10.682,10.132c5.718,0,10.388-4.486,10.681-10.132    h0.552c5.291,0,10.581,0,15.872,0c-0.104-0.479,0.067-5.137,0.067-5.137c8.971,0,18.22-0.039,27.19-0.039    c0-12.601,0-25.072,0-37.264C283.626,76.039,284.205,69.667,283.281,66.537z M-9.659,67.227c-0.814,0.802-1.259,1.16-4.245,1.16    c-2.24,0-12.171,0.445-14.233-0.345c-0.411-0.158-1.208-0.172-2.243-1.122c-1.069-0.98-1.006-2.408-1.016-2.454    c-0.419-1.941,4.785-21.992,5.175-22.773c0.844-1.687,1.188-2.376,2.416-2.76c1.078-0.337,11.232-0.125,12.767,0    c1.533,0.125,1.792,0.729,2.07,1.726c0.607,3.896,0.326,15.088,0.326,20.481C-8.643,65.142-8.47,66.058-9.659,67.227z     M22.239,108.813c0,2.16-1.752,3.912-3.913,3.912H4.758c-2.16,0-3.911-1.752-3.911-3.912v-65.67c0-2.161,1.751-3.912,3.911-3.912    h13.568c2.161,0,3.913,1.751,3.913,3.912V108.813z M49.497,108.813c0,2.16-1.752,3.912-3.913,3.912H32.016    c-2.161,0-3.912-1.752-3.912-3.912v-65.67c0-2.161,1.751-3.912,3.912-3.912h13.567c2.161,0,3.913,1.751,3.913,3.912V108.813z     M94.352,65.227c0,1.956-1.918,3.542-4.283,3.542H62.751c-2.364,0-4.283-1.585-4.283-3.542v-22.59    c0-1.956,1.919-3.542,4.283-3.542h27.318c2.365,0,4.283,1.585,4.283,3.542V65.227z M94.889,0.979l25.532-19.322l25.533,19.322    l-25.533,17.252L94.889,0.979z M138.173,65.227c0,1.956-1.918,3.542-4.282,3.542h-27.319c-2.365,0-4.283-1.585-4.283-3.542v-22.59    c0-1.956,1.917-3.542,4.283-3.542h27.319c2.364,0,4.282,1.585,4.282,3.542V65.227z M181.992,65.227    c0,1.956-1.917,3.542-4.283,3.542H150.39c-2.365,0-4.283-1.585-4.283-3.542v-22.59c0-1.956,1.917-3.542,4.283-3.542h27.318    c2.365,0,4.283,1.585,4.283,3.542V65.227z M212.701,108.467c0,2.161-1.752,3.912-3.912,3.912h-13.567    c-2.161,0-3.912-1.751-3.912-3.912V42.798c0-2.161,1.751-3.913,3.912-3.913h13.567c2.16,0,3.912,1.752,3.912,3.913V108.467z     M239.959,108.467c0,2.161-1.751,3.912-3.912,3.912h-13.568c-2.16,0-3.912-1.751-3.912-3.912V42.798    c0-2.161,1.752-3.913,3.912-3.913h13.568c2.16,0,3.912,1.752,3.912,3.913V108.467z M272.24,64.812    c-0.022,0.086-0.951,1.642-1.38,2.07c-1.026,1.024-2.631,1.251-5.176,1.38c-1.602,0.081-10.809,0.268-14.147-0.345    c-1.678-1.306-1.593-3.265-1.725-5.521c-0.02-6.517-0.239-20.31,0-21.393s0.239-1.859,2.416-2.07    c1.307-0.533,11.578-0.125,12.421,0c1.706,0.125,2.234,1.62,2.415,2.07c0.049,0.123,0.444,1.386,0.689,2.416    c0.237,0.998,3.202,13.49,3.45,14.492C271.786,60.252,272.787,62.715,272.24,64.812z"
         id="path70" /></g></g><g
     id="Layer_8"
     display="none"><g
       id="Shape_1"
       display="inline"><g
         id="g74"><path
           d="M763.796-287.774c-9.801-15.004-34.896-20.234-54.012-26.477c-65.781-15.989-86.781-19.989-110.162-24.889     c-4.495-1.198-8.943-4.144-12.619-6.434c-8.058-5.019-15.978-10.413-23.918-15.277c-13.119-8.036-59.416-36.39-84.082-45.723     c-34.759-12.702-71.083-31.874-192.666-15c-29.334,5.334-46,11-46,11s-24.001,9.333-54.668,24.667     c-28.499,16.499-56.809,32.137-64.748,34.704c-8.624,2.786-45.525,8.203-64.606,8.472c-2.182,3.738-5.447,125.607-2.179,130.149     c1.596,2.215,2.371,6.033,5.296,6.884c15.631,11.41,66.784,13.768,66.784,13.768l4.164,0.229     c-0.637-3.935-0.973-7.969-0.973-12.082c0-41.479,33.625-75.103,75.102-75.103c41.479,0,75.103,33.624,75.103,75.103     c0,6.966-0.951,18.277-2.729,24.678l274.073-0.735c-2.527-7.521-3.898-15.57-3.898-23.941c0-41.479,36.624-75.102,78.104-75.102     c41.478,0,73.102,33.623,73.102,75.102c0,7.27-1.036,14.297-2.964,20.945l4.252-0.089c0,0,47.779-1.585,55.773-5.297     c7.994-3.711,11.12-14.297,11.12-14.297S774.172-271.889,763.796-287.774z M237.24-342.31     c-23.57-9.929-15.236-22.262-11.236-26.929c12.333-13,60.405-38.05,135.666-34.667c1.149,24.493-0.333,62.833,0.196,69.787     C309.632-335.702,254.82-334.819,237.24-342.31z M515.902-333.844c-11.408,0-128.97-0.03-128.97-0.03s-1.097-66.699-0.888-70.157     c0.764,0.07,11.298,1.055,11.298,1.055s33.562,4.186,61.493,13.403c24,9,43.833,19,66.167,37.666     C551.584-329.691,528.003-334.24,515.902-333.844z"
           id="path76" /></g></g><circle
       display="inline"
       cx="204.336"
       cy="-203.573"
       r="61"
       id="circle78" /><circle
       display="inline"
       cx="623.336"
       cy="-203.573"
       r="61"
       id="circle80" /><rect
       x="322.961"
       y="-266.073"
       display="inline"
       fill="#FFFFFF"
       width="24.5"
       height="24.5"
       id="rect82" /><rect
       x="421.043"
       y="-266.073"
       display="inline"
       fill="#FFFFFF"
       width="24.5"
       height="24.5"
       id="rect84" /><rect
       x="347.502"
       y="-241.573"
       display="inline"
       fill="#FFFFFF"
       width="24.5"
       height="24.5"
       id="rect86" /><rect
       x="396.544"
       y="-241.573"
       display="inline"
       fill="#FFFFFF"
       width="24.5"
       height="24.5"
       id="rect88" /><rect
       x="372.044"
       y="-266.073"
       display="inline"
       fill="#FFFFFF"
       width="24.5"
       height="24.5"
       id="rect90" /><path
       display="inline"
       d="M322.336-436.573c1-2,3-34,38-34c28.046,1.202,33.5,33,33.5,33S358.336-441.573,322.336-436.573z"
       id="path92" /></g></svg>