<?xml version="1.0" encoding="utf-8"?>
<!-- Generator: Adobe Illustrator 14.0.0, SVG Export Plug-In . SVG Version: 6.00 Build 43363)  -->
<!DOCTYPE svg PUBLIC "-//W3C//DTD SVG 1.1//EN" "http://www.w3.org/Graphics/SVG/1.1/DTD/svg11.dtd">
<svg version="1.1" id="Layer_1" xmlns="http://www.w3.org/2000/svg" xmlns:xlink="http://www.w3.org/1999/xlink" x="0px" y="0px"
	 width="85.04px" height="42.52px" viewBox="0 0 85.04 42.52" enable-background="new 0 0 85.04 42.52" xml:space="preserve">
<g id="wallet" display="none">
	<g display="inline">
		<path fill="#5B2324" stroke="#5B2324" stroke-width="13" stroke-linecap="round" stroke-linejoin="round" d="M135.081,130.528
			c0.004-0.248,0.008-0.494,0.008-0.743c0-36.865-25.705-66.753-57.416-66.753c-31.713,0-57.42,29.888-57.42,66.753
			c0,0.249,0.006,0.495,0.009,0.743H135.081z"/>
		<g>
			<path fill="#5B2324" d="M76.884,38.238c0,4.836-3.928,8.764-8.761,8.764c-4.841,0-8.77-3.928-8.77-8.764
				c0-4.84,3.929-8.767,8.77-8.767C72.956,29.471,76.884,33.398,76.884,38.238z"/>
			<path fill="#5B2324" d="M96.805,37.46c0.183,4.833-3.595,8.903-8.424,9.086c-4.836,0.184-8.912-3.594-9.094-8.425
				c-0.183-4.837,3.598-8.91,8.436-9.092C92.552,28.846,96.624,32.624,96.805,37.46z"/>
			<path fill="none" stroke="#5B2324" stroke-width="8" stroke-linecap="round" stroke-linejoin="round" d="M32.296,67.178
				c0,0,15.75-18.461,43.918-18.951c31.369-0.326,46.832,18.974,46.832,18.974"/>
			<polygon fill="#5B2324" points="65.229,46.448 76.432,35.468 80.244,49.29 			"/>
			<polygon fill="#5B2324" points="91.044,46.177 79.604,35.442 76.096,49.345 			"/>
		</g>
		<path fill="none" stroke="#FFFFFF" stroke-width="4.5" stroke-linecap="round" stroke-linejoin="round" d="M94.334,95.281
			c0,0,0.017,19.083-0.172,18.979c-3.479,0.005-16.693,0.001-19.814-0.157c-0.094,0.053,0.04-11.751,0.04-11.751"/>
		<path fill="none" stroke="#FFFFFF" stroke-width="4.5" stroke-linecap="round" stroke-linejoin="round" d="M63.614,108.664
			c0,0-0.002-18.837,0.192-18.731c3.56-0.006,17.071-0.002,20.265,0.156c0.097-0.053-0.006,12.263-0.006,12.263"/>
	</g>
</g>
<g id="heart" display="none">
	<g display="inline">
		<path fill="#D7163F" d="M101.299,26.476c-17.085,0.492-23.806,11.468-24.618,12.972c-0.79-1.503-7.103-12.479-24.188-12.972
			c-17.045-0.491-36.961,18.104-30.095,44.509c6.869,26.407,30.974,35.597,39.291,43.158c9.414,8.559,13.559,17.726,14.894,21.943
			c0.034,0.109,0.066,0.122,0.098,0.061c0.031,0.062,0.064,0.049,0.099-0.061c1.336-4.218,5.479-13.385,14.894-21.943
			c8.317-7.562,32.422-16.751,39.291-43.158C137.83,44.579,118.343,25.986,101.299,26.476z"/>
		<polygon fill="#FFFFFF" stroke="#FFFFFF" stroke-width="2" stroke-linecap="round" stroke-linejoin="round" points="
			20.381,82.176 58.394,82.183 62.275,73.327 74.039,106.798 86.301,62.914 91.887,82.204 130.197,82.176 131.268,78.976 
			94.986,79.018 86.091,48.053 73.599,94.011 62.561,64.789 55.764,78.98 19.96,79.005 		"/>
	</g>
</g>
<g id="clock" display="none">
	<g display="inline">
		<circle fill="#EBA510" cx="77.168" cy="81.852" r="54.271"/>
		<path fill="#FFFFFF" d="M82.422,82.346c0,1.63-1.378,2.953-3.075,2.953l0,0c-1.697,0-3.074-1.323-3.074-2.953v-26.89
			c0-1.629,1.377-2.953,3.074-2.953l0,0c1.697,0,3.075,1.324,3.075,2.953V82.346z"/>
		<path fill="#FFFFFF" d="M57.136,105.737c-1.426,1.226-3.48,1.176-4.577-0.11l0,0c-1.101-1.28-0.833-3.315,0.596-4.54L76.72,80.905
			c1.425-1.223,3.48-1.175,4.578,0.113l0,0c1.101,1.28,0.832,3.314-0.596,4.539L57.136,105.737z"/>
	</g>
</g>
<g id="leaves" display="none">
	<g display="inline">
		<path fill="#70B723" d="M59.634,136.552c-24.934-4.325-61.402-35.333-48.961-82.18C55.666,68.094,60.332,98.76,59.634,136.552z"/>
		<path fill="#70B723" d="M65.112,136.455c42.532-1.556,84.891-47.013,81.092-110.031C86.666,37.427,62.666,78.76,65.112,136.455z"
			/>
	</g>
</g>
<g id="walk" display="none">
	<g display="inline">
		<g>
			<path fill="#FFFFFF" d="M92.88,78.665c-2.927,3.987-6.995,1.771-7.777,1.432c-0.781-0.339-16.76-11.478-17.11-11.739
				c-0.956-0.713-2.009-1.356-2.515-2.011c-0.513-0.664-4.5-8.996-5.027-9.553c-0.231,0.079-5.181,22.133-5.279,22.625
				c-0.241,1.193-0.518,1.839,0.251,2.766c0.184,0.221,21.017,24.419,21.369,24.888c0.066,0.09,0.23,0.468,0.251,0.503
				c0.053,0.092,0.236,0.472,0.251,0.503c0.044,0.091,0.812,2.713,1.006,3.771c0.043,0.234,2.495,12.91,2.766,14.329
				c0.163,0.857,3.141,15.677,2.766,18.101c-0.002,0.017-0.256,5.25-5.938,6.3c-6.379,1.223-8.728-3.867-8.957-4.479
				c-0.195-0.523-1.209-4.687-1.403-5.842c-0.027-0.161-3.664-18.945-4.022-20.866c-0.254-1.361-0.308-2.905-0.754-4.022
				c-0.147-0.369-0.552-1.047-0.755-1.257c-0.625-0.651-1.737-1.856-2.515-2.766c-0.716-0.838-1.395-1.518-2.263-2.514
				c-0.061-0.071-12.239-12.17-13.618-13.576c-0.703,3.09-5.769,22.671-6.788,24.385c-0.093,0.157-0.604,1.004-0.754,1.257
				c-0.094,0.16-14.886,25.475-15.587,26.396c-1.36,2.081-6.599,5.51-11.667,2.408c-5.812-3.716-2.84-9.936-2.655-10.373
				c0.64-1.312,14.748-25.619,14.825-25.723c0.201-0.269,0.694-1.152,0.754-1.257c0.066-0.115,0.468-0.907,0.503-1.005
				c0.162-0.44,4.492-20.615,4.776-21.872c2.775-12.241,5.609-24.124,8.296-36.703c-0.053-0.304-0.279-0.155-0.503,0
				c-2.619,2.073-5.163,4.224-7.793,6.285c-0.442,0.329-0.376,0.28-0.503,0.502c-0.291,2.629-4.243,20.145-4.505,20.843
				c-0.218,0.58-0.686,1.65-0.773,1.782c-0.185,0.276-0.312,0.514-0.503,0.754c-0.641,0.803-2.176,2.576-5.279,2.011
				c-3.319-0.877-4.033-3.009-4.273-4.021c-0.352-1.479-0.093-2.605,0.251-4.274c1.317-6.398,5.487-24.043,5.53-24.134
				c0.015-0.031,0.188-0.412,0.251-0.502c0.185-0.263,3.228-2.781,3.52-3.017c0.345-0.28,10.332-8.386,12.067-9.805
				c0.483-0.396,9.767-7.804,10.056-8.045c1.775-1.482,4.464-2.834,7.29-3.016c1.917-0.124,3.29,0.437,4.526,0.502
				c0.237,0.012,1.229,0.382,1.507,0.503c0.12,0.052,0.873,0.442,1.006,0.502c0.083,0.038,0.625,0.444,0.754,0.503
				c0.082,0.037,0.626,0.444,0.754,0.503c0.068,0.03,2.133,2.149,2.766,3.018c1.226,1.683,12.605,25.12,12.82,25.391
				c0.479,0.603,16.659,11.799,17.512,12.52C92.772,72.56,95,75.51,92.88,78.665z"/>
		</g>
		<circle fill="#FFFFFF" cx="54.735" cy="12.74" r="12.584"/>
	</g>
</g>
<g id="bus" display="none">
	<g display="inline">
		<circle fill="#FFFFFF" cx="76.44" cy="145.233" r="6.623"/>
		<circle fill="#FFFFFF" cx="26.241" cy="145.233" r="6.623"/>
		<path fill="#FFFFFF" d="M2.597,142.847c0.011,0.041,0.028,0.292,0.237,0.676c0.241,0.441,0.603,0.904,1.087,1.251
			c0.483,0.348,0.639,0.436,1.204,0.603c1.141,0.273,9.267,0.198,12.762,0.112c-0.002-0.071-0.021-0.227-0.021-0.3
			c0-4.634,3.807-8.42,8.439-8.42c2.971,0,5.58,1.546,7.071,3.876c0.021,0.01,0.039,0.021,0.047,0.034
			c0.007,0.011,0.008,0.028,0.006,0.05c0.801,1.285,1.265,2.802,1.265,4.43c0,0.072-0.004,0.145-0.005,0.217
			c11.108,0,22.219,0,33.328,0c-0.001-0.073-0.006-0.146-0.006-0.217c0-4.634,3.757-8.391,8.39-8.391c4.635,0,8.39,3.756,8.39,8.391
			c0,0.072-0.003,0.145-0.005,0.217c3.833,0,7.666,0,11.5,0c0.879-0.188,0.979-0.609,1.083-1.204c0.008-0.022,0.011-1.23,0-1.808
			c-0.046-2.501,0.208-6.01,0-8.309c0.004,0.038-0.068-0.562-0.12-0.843c-0.104-0.558-0.375-1.16-0.603-1.807
			c-0.397-1.137-1.458-4.146-1.565-4.455c-0.103-0.295-1.072-3.211-1.204-3.613c-0.06-0.18-0.146-0.482-0.241-0.723
			c-0.151-0.378-1.072-3.102-1.084-3.132c-0.059-0.146-0.124-0.434-0.144-0.607c-0.063-0.549,0.301-0.723,0.505-0.836
			c0.047-0.026,0.377-0.129,0.418-0.147c0.201-0.09,0.292-0.087,0.312-0.271c0.09-0.844-0.041-2.018-0.007-2.954
			c-0.067-0.173-0.188-0.294-0.361-0.361c-26.422,0-54.911,0-82.129,0c-0.623,0-3.379,0.147-3.938,1.017
			c-0.325,0.255-1.124,1.927-1.284,2.449c-0.104,0.334-3.397,12.409-3.449,12.792c-0.126,0.923-0.084,2.024-0.084,3.164
			C2.393,134.728,2.199,141.38,2.597,142.847z M80.391,127.794c0-2.271,0-4.376,0-6.381c0-1.13-0.104-2.456,0.157-2.938
			c0.157-0.227,0.452-0.28,0.564-0.313c0.106-0.032,7.201-0.208,8.431,0c0.147,0.024,0.257,0.09,0.351,0.177
			c0.2,0.16,0.262,0.343,0.372,0.545c0.131,0.239,0.351,0.811,0.362,0.843c0.364,0.958,2.797,7.853,3.01,8.551
			c0.084,0.273,0.168,0.541,0.246,0.771c0.109,0.324,0.089,0.718-0.049,0.965c-0.137,0.248-0.359,0.54-0.799,0.553
			c-2.995,0.003-11.64,0.275-12.163-0.121C80.338,130.041,80.391,128.954,80.391,127.794z M67.919,120.986
			c0.425-1.499,0.729-2.565,1.205-2.72c0.101-0.056,0.466-0.122,0.68-0.141c0.213-0.02,7.049-0.004,7.232,0.018
			c0.184,0.023,0.311,0.102,0.461,0.211c0.462,0.271,0.364,1.706,0.364,2.938c0,2.252,0,4.245,0,6.262c0,1.19,0.159,2.25-0.36,2.77
			c-0.479,0.479-1.508,0.361-2.409,0.361c-2.993,0-5.874,0.023-8.549-0.12c-0.707-0.167-0.854-0.876-0.843-0.843
			C65.47,129.068,67.789,121.443,67.919,120.986z M51.003,128.741c0.211-0.543,2.583-8.753,2.979-9.846
			c0.361-0.994,0.963-0.844,0.963-0.844l10.049,0.017c1.017,0.258,0.729,1.609,0.729,1.609s-2.989,9.889-3.071,10.115
			c-0.119,0.332-0.271,0.633-0.669,0.679c-0.397,0.047-9.566,0.044-10.355-0.12C50.839,130.189,50.792,129.283,51.003,128.741z
			 M36.311,128.741c0.211-0.543,2.583-8.753,2.98-9.846c0.36-0.994,0.963-0.844,0.963-0.844l10.049,0.017
			c1.017,0.258,0.729,1.609,0.729,1.609s-2.988,9.889-3.071,10.115c-0.12,0.332-0.271,0.633-0.669,0.679
			c-0.398,0.047-9.567,0.044-10.356-0.12C36.147,130.189,36.1,129.283,36.311,128.741z M21.62,128.741
			c0.211-0.543,2.583-8.753,2.979-9.846c0.362-0.994,0.964-0.844,0.964-0.844l10.049,0.017c1.017,0.258,0.729,1.609,0.729,1.609
			s-2.989,9.889-3.071,10.115c-0.121,0.332-0.271,0.633-0.67,0.679c-0.396,0.047-9.565,0.044-10.354-0.12
			C21.456,130.189,21.409,129.283,21.62,128.741z M6.748,128.741c0.21-0.543,2.583-8.753,2.979-9.846
			c0.361-0.994,0.963-0.844,0.963-0.844l10.051,0.017c1.016,0.258,0.729,1.609,0.729,1.609s-2.988,9.889-3.071,10.115
			c-0.121,0.332-0.271,0.633-0.669,0.679c-0.397,0.047-9.566,0.044-10.355-0.12S6.538,129.283,6.748,128.741z"/>
		<path fill="#FFFFFF" d="M52.369,107.818"/>
	</g>
</g>
<g id="tram">
	<g>
		<path fill="#FFFFFF" d="M83.094,25.008c-0.044-0.145-0.051-0.203-0.087-0.344c-0.431-1.664-0.802-3.208-1.204-4.819
			c-0.25-1.002-0.575-2.471-0.86-3.441c-0.062-0.209-0.306-0.851-0.344-0.947c-0.046-0.067-0.177-0.292-0.37-0.441
			c-0.194-0.15-0.596-0.234-0.662-0.247c-0.845-0.142-2.065-0.085-2.927-0.085c-7.715,0-15.125,0-22.718,0
			c-0.648,0-1.401,0.11-1.807,0c-0.543-0.149-1.003-1.023-1.463-1.205c-0.166-0.065-0.354-0.153-0.43-0.172
			c-0.054-0.014-0.119,0.004-0.173,0c-2.046-0.171-6.108,0-6.108,0l6.711-4.734l-6.441-4.833l-0.03-2.779h-3.399v2.768h0.007
			l-6.397,4.932l6.539,4.646c0,0-2.001,0-3.099,0c-1.05,0-2.223-0.14-3.184,0c-0.005,0.001,0.005,0.08,0,0.085
			c-0.019,0.022-0.144-0.01-0.172,0c-0.326,0.104-0.607,0.369-0.86,0.603c-0.239,0.222-0.352,0.484-0.517,0.604
			c-0.354,0.255-1.376,0.086-2.065,0.086c-7.636,0-14.861,0-22.373,0c-1.017,0-2.907-0.169-3.44,0.172
			c-0.062,0.039-0.115,0.051-0.173,0.085c-0.219,0.136-0.639,0.525-0.688,0.602c-0.067,0.105-0.11,0.337-0.172,0.518
			c-0.074,0.215-1.89,7.381-1.895,7.399c-0.051,0.217-0.154,0.709-0.172,0.775c-0.104,0.418-0.223,0.809-0.257,1.119
			c-0.109,0.98,0,2.08,0,3.098c0,3.125,0,6.244,0,9.293c2.237,0,4.475,0,6.711,0c0,0.43,0,0.861,0,1.291c1.349,0,2.697,0,4.045,0
			h0.128c0.073,1.408,1.238,2.527,2.664,2.527s2.591-1.119,2.665-2.527h0.136c1.32,0,2.64,0,3.959,0h0.085
			c0.073,1.408,1.238,2.527,2.664,2.527c1.427,0,2.591-1.119,2.663-2.527h0.096h29.688h0.085c0.073,1.408,1.237,2.527,2.664,2.527
			c1.426,0,2.591-1.119,2.664-2.527h0.181h3.958h0.042c0.073,1.408,1.238,2.527,2.664,2.527c1.427,0,2.59-1.119,2.663-2.527h0.139
			c1.319,0,2.638,0,3.957,0c-0.024-0.119,0.018-1.281,0.018-1.281c2.237,0,4.544-0.01,6.781-0.01c0-3.143,0-6.254,0-9.293
			C83.18,27.379,83.324,25.789,83.094,25.008z M10.036,25.18c-0.203,0.199-0.313,0.291-1.059,0.291
			c-0.559,0-3.035,0.109-3.549-0.086c-0.104-0.041-0.302-0.043-0.561-0.281c-0.266-0.244-0.251-0.602-0.253-0.611
			c-0.104-0.484,1.193-5.485,1.291-5.68c0.21-0.42,0.297-0.592,0.604-0.688c0.269-0.085,2.801-0.03,3.183,0
			c0.383,0.031,0.448,0.183,0.517,0.432c0.151,0.971,0.081,3.761,0.081,5.107C10.29,24.66,10.333,24.889,10.036,25.18z
			 M17.991,35.553c0,0.539-0.437,0.975-0.976,0.975h-3.384c-0.54,0-0.977-0.438-0.977-0.975V19.175c0-0.539,0.437-0.977,0.977-0.977
			h3.384c0.539,0,0.976,0.438,0.976,0.977V35.553z M24.789,35.553c0,0.539-0.438,0.975-0.975,0.975h-3.384
			c-0.54,0-0.976-0.438-0.976-0.975V19.175c0-0.539,0.437-0.977,0.976-0.977h3.384c0.538,0,0.975,0.438,0.975,0.977V35.553z
			 M35.978,24.682c0,0.486-0.479,0.883-1.069,0.883h-6.812c-0.591,0-1.069-0.396-1.069-0.883v-5.634
			c0-0.487,0.479-0.884,1.069-0.884h6.812c0.591,0,1.069,0.396,1.069,0.884V24.682z M36.11,8.659l6.368-4.818l6.368,4.818
			l-6.368,4.302L36.11,8.659z M46.906,24.682c0,0.486-0.478,0.883-1.067,0.883h-6.813c-0.589,0-1.067-0.396-1.067-0.883v-5.634
			c0-0.487,0.479-0.884,1.067-0.884h6.813c0.59,0,1.067,0.396,1.067,0.884V24.682z M57.833,24.682c0,0.486-0.478,0.883-1.067,0.883
			h-6.812c-0.59,0-1.068-0.396-1.068-0.883v-5.634c0-0.487,0.479-0.884,1.068-0.884h6.812c0.59,0,1.067,0.396,1.067,0.884V24.682z
			 M65.491,35.465c0,0.539-0.437,0.977-0.976,0.977h-3.385c-0.539,0-0.975-0.438-0.975-0.977V19.088
			c0-0.538,0.438-0.976,0.975-0.976h3.385c0.539,0,0.976,0.438,0.976,0.976V35.465z M72.29,35.465c0,0.539-0.438,0.977-0.977,0.977
			h-3.383c-0.539,0-0.976-0.438-0.976-0.977V19.088c0-0.538,0.438-0.976,0.976-0.976h3.383c0.54,0,0.977,0.438,0.977,0.976V35.465z
			 M80.34,24.578c-0.005,0.021-0.236,0.41-0.344,0.518c-0.256,0.254-0.656,0.311-1.292,0.344c-0.397,0.02-2.694,0.066-3.526-0.086
			c-0.418-0.326-0.397-0.816-0.431-1.377c-0.004-1.627-0.059-5.066,0-5.336c0.061-0.271,0.061-0.463,0.603-0.517
			c0.325-0.132,2.888-0.03,3.099,0c0.424,0.031,0.556,0.404,0.601,0.517c0.014,0.03,0.112,0.346,0.174,0.603
			c0.059,0.249,0.798,3.365,0.859,3.615C80.228,23.442,80.477,24.055,80.34,24.578z"/>
	</g>
</g>
<g id="Layer_8" display="none">
	<g id="Shape_1" display="inline">
		<g>
			<path d="M763.796-287.774c-9.801-15.004-34.896-20.234-54.012-26.477c-65.781-15.989-86.781-19.989-110.162-24.889
				c-4.495-1.198-8.943-4.144-12.619-6.434c-8.058-5.019-15.978-10.413-23.918-15.277c-13.119-8.036-59.416-36.39-84.082-45.723
				c-34.759-12.702-71.083-31.874-192.666-15c-29.334,5.334-46,11-46,11s-24.001,9.333-54.668,24.667
				c-28.499,16.499-56.81,32.137-64.748,34.704c-8.624,2.786-45.526,8.203-64.607,8.472c-2.181,3.738-5.446,125.607-2.178,130.149
				c1.595,2.215,2.371,6.033,5.295,6.884c15.631,11.41,66.785,13.768,66.785,13.768l4.164,0.229
				c-0.637-3.935-0.974-7.969-0.974-12.082c0-41.479,33.625-75.103,75.103-75.103s75.102,33.624,75.102,75.103
				c0,6.966-0.95,18.277-2.728,24.678l274.073-0.735c-2.527-7.521-3.898-15.57-3.898-23.941c0-41.479,36.624-75.102,78.104-75.102
				c41.478,0,73.102,33.623,73.102,75.102c0,7.27-1.036,14.297-2.964,20.945l4.252-0.089c0,0,47.779-1.585,55.773-5.297
				c7.994-3.711,11.12-14.297,11.12-14.297S774.172-271.889,763.796-287.774z M237.24-342.31
				c-23.57-9.929-15.236-22.262-11.236-26.929c12.333-13,60.405-38.05,135.666-34.667c1.148,24.493-0.333,62.833,0.196,69.787
				C309.632-335.702,254.82-334.819,237.24-342.31z M515.903-333.844c-11.408,0-128.971-0.03-128.971-0.03
				s-1.096-66.699-0.887-70.157c0.763,0.07,11.298,1.055,11.298,1.055s33.562,4.186,61.493,13.403c24,9,43.833,19,66.167,37.666
				C551.584-329.691,528.003-334.24,515.903-333.844z"/>
		</g>
	</g>
	<circle display="inline" cx="204.336" cy="-203.573" r="61"/>
	<circle display="inline" cx="623.336" cy="-203.573" r="61"/>
	<rect x="322.961" y="-266.073" display="inline" fill="#FFFFFF" width="24.5" height="24.5"/>
	<rect x="421.043" y="-266.073" display="inline" fill="#FFFFFF" width="24.5" height="24.5"/>
	<rect x="347.502" y="-241.573" display="inline" fill="#FFFFFF" width="24.5" height="24.5"/>
	<rect x="396.544" y="-241.573" display="inline" fill="#FFFFFF" width="24.5" height="24.5"/>
	<rect x="372.044" y="-266.073" display="inline" fill="#FFFFFF" width="24.5" height="24.5"/>
	<path display="inline" d="M322.336-436.573c1-2,3-34,38-34c28.046,1.202,33.5,33,33.5,33S358.336-441.573,322.336-436.573z"/>
</g>
</svg>
